SplineFontDB: 3.0
FontName: Bodoni-16-Medium-Italic
FullName: Bodoni* 16 Medium Italic
FamilyName: Bodoni* 16 Medium
Weight: Medium
Copyright: Copyright (c) 2017, Owen Earl,,, (EwonRael@yahoo.com)
Version: 001.0
ItalicAngle: -13
UnderlinePosition: -100
UnderlineWidth: 50
Ascent: 800
Descent: 200
InvalidEm: 0
LayerCount: 2
Layer: 0 0 "Back" 1
Layer: 1 0 "Fore" 0
PreferredKerning: 4
XUID: [1021 31 -699969567 16487490]
FSType: 0
OS2Version: 0
OS2_WeightWidthSlopeOnly: 0
OS2_UseTypoMetrics: 1
CreationTime: 1460762150
ModificationTime: 1548455731
PfmFamily: 17
TTFWeight: 500
TTFWidth: 5
LineGap: 100
VLineGap: 0
OS2TypoAscent: 800
OS2TypoAOffset: 0
OS2TypoDescent: -200
OS2TypoDOffset: 0
OS2TypoLinegap: 100
OS2WinAscent: 1000
OS2WinAOffset: 0
OS2WinDescent: 400
OS2WinDOffset: 0
HheadAscent: 1000
HheadAOffset: 0
HheadDescent: -200
HheadDOffset: 0
OS2CapHeight: 700
OS2XHeight: 460
OS2FamilyClass: 768
OS2Vendor: 'PfEd'
OS2UnicodeRanges: 00000001.00000000.00000000.00000000
Lookup: 1 0 0 "'ss04' Style Set 4 lookup 5" { "'ss04' Style Set 4 lookup 5-1"  } ['ss04' ('DFLT' <'dflt' > 'grek' <'dflt' > 'latn' <'dflt' > ) ]
Lookup: 1 0 0 "'ss02' Style Set 2 lookup 4" { "'ss02' Style Set 2 lookup 4-1"  } ['ss02' ('DFLT' <'dflt' > 'grek' <'dflt' > 'latn' <'dflt' > ) ]
Lookup: 1 0 0 "'ss03' Style Set 3 lookup 5" { "'ss03' Style Set 3 lookup 5-1"  } ['ss03' ('DFLT' <'dflt' > 'grek' <'dflt' > 'latn' <'dflt' > ) ]
Lookup: 1 0 0 "'ss01' Style Set 1 lookup 2" { "'ss01' Style Set 1 lookup 2-1"  } ['ss01' ('DFLT' <'dflt' > 'grek' <'dflt' > 'latn' <'dflt' > ) ]
Lookup: 5 0 0 "'calt' Contextual Alternates lookup 3" { "'calt' Contextual Alternates lookup 3-1"  } ['calt' ('DFLT' <'dflt' > 'grek' <'dflt' > 'latn' <'dflt' > ) ]
Lookup: 4 0 1 "'liga' Standard Ligatures lookup 0" { "'liga' Standard Ligatures lookup 0-1"  } ['liga' ('DFLT' <'dflt' > 'grek' <'dflt' > 'latn' <'dflt' > ) ]

StartChar: ampersand
Encoding: 38 38 0
GlifName: ampersand
Width: 809
Flags: HMW
LayerCount: 2
Fore
SplineSet
293 13 m 0
 524 13 768 222 777 360 c 2
 779 377 l 1
 773 345 745 315 707 315 c 0
 663 315 642 351 642 382 c 0
 642 418 673 449 714 449 c 0
 764 449 793 410 793 366 c 0
 793 226 538 -10 253 -10 c 0
 112 -10 20 48 20 158 c 0
 20 430 531 355 531 649 c 0
 531 691 509 748 461 748 c 0
 389 748 357 683 357 620 c 0
 357 585 369 538 398 470 c 2
 560 95 l 2
 576 54 592 13 632 13 c 0
 672 13 704 37 723 74 c 1
 733 70 l 1
 714 26 665 -10 582 -10 c 0
 509 -10 460 19 423 97 c 2
 260 470 l 2
 241 512 232 548 232 583 c 0
 232 683 333 760 469 760 c 0
 556 760 645 725 645 642 c 0
 645 414 150 487 150 156 c 0
 150 98 193 13 293 13 c 0
EndSplineSet
EndChar

StartChar: period
Encoding: 46 46 1
GlifName: period
Width: 224
Flags: HMW
LayerCount: 2
Fore
SplineSet
16 62 m 0
 16 102 48 134 88 134 c 0
 128 134 160 102 160 62 c 0
 160 22 128 -10 88 -10 c 0
 48 -10 16 22 16 62 c 0
EndSplineSet
EndChar

StartChar: zero
Encoding: 48 48 2
GlifName: zero
Width: 636
Flags: HMW
LayerCount: 2
Fore
SplineSet
450 760 m 0
 582 760 659 653 659 532 c 0
 659 243 475 -10 280 -10 c 0
 148 -10 71 97 71 218 c 0
 71 507 255 760 450 760 c 0
450 748 m 0
 299 748 189 351 189 166 c 0
 189 85 203 2 280 2 c 0
 431 2 541 403 541 584 c 0
 541 665 527 748 450 748 c 0
EndSplineSet
EndChar

StartChar: one
Encoding: 49 49 3
GlifName: one
Width: 459
VWidth: 1155
Flags: HMW
LayerCount: 2
Fore
SplineSet
-40 14 m 1
 299 14 l 1
 299 0 l 1
 -40 0 l 1
 -40 14 l 1
236 736 m 1
 122 736 l 1
 122 750 l 1
 359 750 l 1
 189 0 l 1
 70 0 l 1
 236 736 l 1
EndSplineSet
EndChar

StartChar: two
Encoding: 50 50 4
GlifName: two
Width: 572
VWidth: 1155
Flags: HMW
LayerCount: 2
Fore
SplineSet
111 550 m 1
 120 571 141 592 172 592 c 0
 208 592 241 566 241 527 c 0
 241 481 206 452 167 452 c 0
 128 452 92 479 92 529 c 0
 92 646 206 760 351 760 c 0
 468 760 559 706 559 601 c 0
 559 494 414 402 347 352 c 2
 50 114 l 1
 449 114 l 1
 465 189 l 1
 479 189 l 1
 438 0 l 1
 -41 0 l 1
 -23 79 l 1
 246 294 l 2
 341 368 435 488 435 583 c 0
 435 682 394 733 308 733 c 0
 214 733 117 641 111 550 c 1
EndSplineSet
EndChar

StartChar: three
Encoding: 51 51 5
GlifName: three
Width: 543
VWidth: 1155
Flags: HMW
LayerCount: 2
Fore
SplineSet
144 608 m 0
 144 684 233 759 355 759 c 0
 454 759 553 729 553 617 c 0
 553 511 455 403 224 403 c 1
 224 413 l 1
 383 413 430 557 430 627 c 0
 430 704 400 741 325 741 c 0
 257 741 191 699 174 653 c 1
 179 658 195 667 213 667 c 0
 248 667 278 641 278 602 c 0
 278 558 242 536 211 536 c 0
 175 536 144 563 144 608 c 0
5 145 m 0
 5 192 34 221 75 221 c 0
 111 221 139 195 139 155 c 0
 139 117 107 90 72 90 c 0
 51 90 36 101 30 110 c 1
 37 63 97 8 200 8 c 0
 319 8 378 140 378 240 c 0
 378 317 353 400 224 400 c 1
 224 409 l 1
 435 409 501 343 501 231 c 0
 501 94 360 -10 215 -10 c 0
 71 -10 5 71 5 145 c 0
EndSplineSet
EndChar

StartChar: four
Encoding: 52 52 6
GlifName: four
Width: 621
VWidth: 1155
Flags: HMW
LayerCount: 2
Fore
SplineSet
528 14 m 1
 528 0 l 1
 239 0 l 1
 239 14 l 1
 528 14 l 1
611 750 m 1
 443 0 l 1
 324 0 l 1
 478 707 l 1
 66 222 l 1
 603 222 l 1
 603 208 l 1
 36 208 l 1
 498 750 l 1
 611 750 l 1
EndSplineSet
Substitution2: "'ss03' Style Set 3 lookup 5-1" four.alt
EndChar

StartChar: five
Encoding: 53 53 7
GlifName: five
Width: 525
VWidth: 1155
Flags: HMW
LayerCount: 2
Fore
SplineSet
493 278 m 0
 493 120 335 -10 184 -10 c 0
 74 -10 0 59 0 135 c 0
 0 180 31 207 67 207 c 0
 98 207 134 185 134 141 c 0
 134 100 102 76 67 76 c 0
 45 76 30 87 25 95 c 1
 37 54 88 5 174 5 c 0
 303 5 366 174 366 288 c 0
 366 378 333 446 260 446 c 0
 196 446 128 418 93 371 c 1
 80 371 l 1
 116 428 192 464 283 464 c 0
 408 464 493 408 493 278 c 0
544 636 m 1
 180 636 l 1
 88 371 l 1
 74 371 l 1
 205 750 l 1
 555 750 l 1
 566 805 l 1
 580 805 l 1
 544 636 l 1
EndSplineSet
EndChar

StartChar: six
Encoding: 54 54 8
GlifName: six
Width: 580
VWidth: 1155
Flags: HMW
LayerCount: 2
Fore
SplineSet
436 318 m 0
 436 412 417 466 365 466 c 0
 244 466 171 261 171 152 c 1
 160 152 l 1
 160 267 228 491 390 491 c 0
 475 491 560 440 560 300 c 0
 560 142 407 -10 252 -10 c 0
 137 -10 50 60 50 220 c 0
 50 441 290 760 585 760 c 1
 585 748 l 1
 350 748 174 423 174 230 c 1
 171 152 l 1
 171 68 195 4 256 4 c 0
 357 4 436 198 436 318 c 0
EndSplineSet
EndChar

StartChar: seven
Encoding: 55 55 9
GlifName: seven
Width: 525
VWidth: 1155
Flags: HMW
LayerCount: 2
Fore
SplineSet
146 74 m 0
 146 152 255 283 336 391 c 0
 386 457 457 552 518 631 c 1
 144 631 l 1
 128 556 l 1
 114 556 l 1
 156 750 l 1
 625 750 l 1
 625 750 456 525 362 399 c 0
 293 307 232 228 232 183 c 0
 232 137 298 136 298 68 c 0
 298 25 270 -10 220 -10 c 0
 180 -10 146 19 146 74 c 0
EndSplineSet
EndChar

StartChar: eight
Encoding: 56 56 10
GlifName: eight
Width: 574
VWidth: 1155
Flags: HMW
LayerCount: 2
Fore
SplineSet
242 514 m 0
 242 461 255 390 314 390 c 0
 397 390 452 510 452 610 c 0
 452 662 440 746 379 746 c 0
 300 746 242 614 242 514 c 0
120 525 m 0
 120 645 232 760 379 760 c 0
 506 760 574 675 574 595 c 0
 574 473 456 380 315 380 c 0
 194 380 120 445 120 525 c 0
150 144 m 0
 150 71 180 4 249 4 c 0
 342 4 398 136 398 236 c 0
 398 309 368 376 299 376 c 0
 206 376 150 244 150 144 c 0
30 150 m 0
 30 270 118 387 295 387 c 0
 442 387 520 330 520 230 c 0
 520 110 432 -10 255 -10 c 0
 108 -10 30 50 30 150 c 0
EndSplineSet
EndChar

StartChar: A
Encoding: 65 65 12
GlifName: A_
Width: 743
Flags: HMW
LayerCount: 2
Fore
SplineSet
-46 14 m 1
 174 14 l 1
 174 0 l 1
 -46 0 l 1
 -46 14 l 1
360 14 m 1
 674 14 l 1
 674 0 l 1
 360 0 l 1
 360 14 l 1
185 252 m 1
 514 252 l 1
 514 238 l 1
 185 238 l 1
 185 252 l 1
412 627 m 1
 51 0 l 1
 34 0 l 1
 475 765 l 1
 509 765 l 1
 604 0 l 1
 475 0 l 1
 412 627 l 1
EndSplineSet
EndChar

StartChar: B
Encoding: 66 66 13
GlifName: B_
Width: 647
Flags: HMW
LayerCount: 2
Fore
SplineSet
276 0 m 2
 -46 0 l 1
 -46 14 l 1
 276 14 l 2
 387 14 464 127 464 260 c 0
 464 349 420 378 348 378 c 2
 226 378 l 1
 226 389 l 1
 362 389 l 2
 503 389 598 342 598 236 c 0
 598 86 449 0 276 0 c 2
219 750 m 1
 338 750 l 1
 163 0 l 1
 44 0 l 1
 219 750 l 1
346 381 m 2
 226 381 l 1
 226 392 l 1
 346 392 l 2
 422 392 529 474 529 619 c 0
 529 686 498 736 420 736 c 2
 129 736 l 1
 129 750 l 1
 421 750 l 2
 586 750 653 705 653 601 c 0
 653 477 507 381 346 381 c 2
EndSplineSet
EndChar

StartChar: C
Encoding: 67 67 14
GlifName: C_
Width: 675
Flags: HMW
LayerCount: 2
Fore
SplineSet
319 -10 m 0
 160 -10 54 92 54 255 c 0
 54 528 256 760 493 760 c 0
 615 760 701 682 692 539 c 1
 678 539 l 1
 685 678 597 742 509 742 c 0
 301 742 186 413 186 191 c 0
 186 91 229 8 333 8 c 0
 461 8 556 102 611 211 c 1
 625 211 l 1
 577 88 462 -10 319 -10 c 0
678 539 m 1
 683 591 l 1
 683 608 661 666 654 677 c 1
 731 750 l 1
 741 750 l 1
 692 539 l 1
 678 539 l 1
611 211 m 1
 625 211 l 1
 570 0 l 1
 560 0 l 1
 522 70 l 1
 532 79 582 137 592 156 c 1
 611 211 l 1
EndSplineSet
EndChar

StartChar: D
Encoding: 68 68 15
GlifName: D_
Width: 719
Flags: HMW
LayerCount: 2
Fore
SplineSet
224 750 m 1
 343 750 l 1
 173 0 l 1
 54 0 l 1
 224 750 l 1
273 0 m 2
 -36 0 l 1
 -36 14 l 1
 265 14 l 2
 473 14 586 339 586 541 c 0
 586 633 551 736 433 736 c 2
 124 736 l 1
 124 750 l 1
 439 750 l 2
 602 750 720 660 720 491 c 0
 720 224 522 0 273 0 c 2
EndSplineSet
EndChar

StartChar: E
Encoding: 69 69 16
GlifName: E_
Width: 590
Flags: HMW
LayerCount: 2
Fore
SplineSet
123 750 m 1
 666 750 l 1
 618 545 l 1
 604 545 l 1
 623 652 594 736 477 736 c 2
 123 736 l 1
 123 750 l 1
213 750 m 1
 332 750 l 1
 158 0 l 1
 39 0 l 1
 213 750 l 1
298 381 m 2
 229 381 l 1
 229 395 l 1
 298 395 l 2
 355 395 408 432 429 499 c 1
 443 499 l 1
 392 272 l 1
 378 272 l 1
 387 339 355 381 298 381 c 2
502 0 m 1
 -46 0 l 1
 -46 14 l 1
 303 14 l 2
 440 14 505 98 540 225 c 1
 554 225 l 1
 502 0 l 1
EndSplineSet
EndChar

StartChar: F
Encoding: 70 70 17
GlifName: F_
Width: 568
Flags: HMW
LayerCount: 2
Fore
SplineSet
279 366 m 2
 228 366 l 1
 228 380 l 1
 279 380 l 2
 361 380 412 414 431 481 c 1
 445 481 l 1
 394 260 l 1
 380 260 l 1
 389 327 362 366 279 366 c 2
-46 14 m 1
 258 14 l 1
 258 0 l 1
 -46 0 l 1
 -46 14 l 1
213 750 m 1
 332 750 l 1
 158 0 l 1
 39 0 l 1
 213 750 l 1
123 750 m 1
 654 750 l 1
 606 545 l 1
 592 545 l 1
 611 652 584 736 467 736 c 2
 123 736 l 1
 123 750 l 1
EndSplineSet
EndChar

StartChar: G
Encoding: 71 71 18
GlifName: G_
Width: 748
Flags: HMW
LayerCount: 2
Fore
SplineSet
540 282 m 1
 668 282 l 1
 638 165 l 1
 593 102 482 -10 319 -10 c 0
 162 -10 54 88 54 255 c 0
 54 532 264 760 499 760 c 0
 621 760 710 682 700 539 c 1
 686 539 l 1
 695 674 606 740 515 740 c 0
 305 740 186 421 186 195 c 0
 186 93 215 5 313 5 c 0
 423 5 480 95 499 125 c 1
 540 282 l 1
448 292 m 1
 738 292 l 1
 738 278 l 1
 448 278 l 1
 448 292 l 1
739 750 m 1
 749 750 l 1
 700 539 l 1
 686 539 l 1
 692 584 l 1
 692 597 668 668 660 680 c 1
 739 750 l 1
EndSplineSet
EndChar

StartChar: H
Encoding: 72 72 19
GlifName: H_
Width: 742
Flags: HMW
LayerCount: 2
Fore
SplineSet
381 14 m 1
 673 14 l 1
 673 0 l 1
 381 0 l 1
 381 14 l 1
546 750 m 1
 838 750 l 1
 838 736 l 1
 546 736 l 1
 546 750 l 1
634 750 m 1
 753 750 l 1
 583 0 l 1
 464 0 l 1
 634 750 l 1
-41 14 m 1
 251 14 l 1
 251 0 l 1
 -41 0 l 1
 -41 14 l 1
124 750 m 1
 416 750 l 1
 416 736 l 1
 124 736 l 1
 124 750 l 1
214 750 m 1
 333 750 l 1
 163 0 l 1
 44 0 l 1
 214 750 l 1
208 377 m 1
 568 377 l 1
 568 363 l 1
 208 363 l 1
 208 377 l 1
EndSplineSet
EndChar

StartChar: I
Encoding: 73 73 20
GlifName: I_
Width: 372
Flags: HMW
LayerCount: 2
Fore
SplineSet
-41 14 m 1
 303 14 l 1
 303 0 l 1
 -41 0 l 1
 -41 14 l 1
124 750 m 1
 468 750 l 1
 468 736 l 1
 124 736 l 1
 124 750 l 1
239 750 m 1
 358 750 l 1
 188 0 l 1
 69 0 l 1
 239 750 l 1
EndSplineSet
EndChar

StartChar: J
Encoding: 74 74 21
GlifName: J_
Width: 461
Flags: HMW
LayerCount: 2
Fore
SplineSet
203 750 m 1
 557 750 l 1
 557 736 l 1
 203 736 l 1
 203 750 l 1
-1 51 m 1
 7 24 37 -16 89 -16 c 0
 150 -16 179 50 211 190 c 2
 338 750 l 1
 457 750 l 1
 326 169 l 1
 276 89 204 -30 95 -30 c 0
 16 -30 -31 35 -31 93 c 0
 -31 139 0 170 40 170 c 0
 73 170 108 146 108 99 c 0
 108 54 74 29 36 29 c 0
 20 29 5 38 -1 51 c 1
EndSplineSet
Substitution2: "'ss02' Style Set 2 lookup 4-1" J.alt
EndChar

StartChar: K
Encoding: 75 75 22
GlifName: K_
Width: 706
Flags: HMW
LayerCount: 2
Fore
SplineSet
-41 14 m 1
 251 14 l 1
 251 0 l 1
 -41 0 l 1
 -41 14 l 1
124 750 m 1
 420 750 l 1
 420 736 l 1
 124 736 l 1
 124 750 l 1
214 750 m 1
 333 750 l 1
 163 0 l 1
 44 0 l 1
 214 750 l 1
151 217 m 1
 127 217 l 1
 654 749 l 1
 678 749 l 1
 151 217 l 1
314 14 m 1
 643 14 l 1
 643 0 l 1
 314 0 l 1
 314 14 l 1
767 736 m 1
 527 736 l 1
 527 750 l 1
 767 750 l 1
 767 736 l 1
562 0 m 1
 427 0 l 1
 300 383 l 1
 394 472 l 1
 562 0 l 1
EndSplineSet
EndChar

StartChar: L
Encoding: 76 76 23
GlifName: L_
Width: 580
Flags: HMW
LayerCount: 2
Fore
SplineSet
213 750 m 1
 332 750 l 1
 158 0 l 1
 39 0 l 1
 213 750 l 1
123 750 m 1
 422 750 l 1
 422 736 l 1
 123 736 l 1
 123 750 l 1
498 0 m 1
 -46 0 l 1
 -46 14 l 1
 295 14 l 2
 452 14 501 98 536 225 c 1
 550 225 l 1
 498 0 l 1
EndSplineSet
EndChar

StartChar: M
Encoding: 77 77 24
GlifName: M_
Width: 857
Flags: HMW
LayerCount: 2
Fore
SplineSet
519 14 m 1
 788 14 l 1
 788 0 l 1
 519 0 l 1
 519 14 l 1
864 736 m 1
 708 0 l 1
 589 0 l 1
 749 750 l 1
 928 750 l 1
 928 736 l 1
 864 736 l 1
417 164 m 1
 741 750 l 1
 758 750 l 1
 337 -10 l 1
 320 -10 l 1
 202 750 l 1
 322 750 l 1
 417 164 l 1
197 736 m 1
 124 736 l 1
 124 750 l 1
 215 750 l 1
 56 0 l 1
 40 0 l 1
 197 736 l 1
-26 14 m 1
 133 14 l 1
 133 0 l 1
 -26 0 l 1
 -26 14 l 1
EndSplineSet
EndChar

StartChar: N
Encoding: 78 78 25
GlifName: N_
Width: 725
Flags: HMW
LayerCount: 2
Fore
SplineSet
710 750 m 1
 725 750 l 1
 552 -10 l 1
 527 -10 l 1
 224 750 l 1
 367 750 l 1
 584 197 l 1
 710 750 l 1
590 750 m 1
 821 750 l 1
 821 736 l 1
 590 736 l 1
 590 750 l 1
-36 14 m 1
 198 14 l 1
 198 0 l 1
 -36 0 l 1
 -36 14 l 1
225 736 m 1
 124 736 l 1
 124 750 l 1
 243 750 l 1
 74 0 l 1
 59 0 l 1
 225 736 l 1
EndSplineSet
EndChar

StartChar: O
Encoding: 79 79 26
GlifName: O_
Width: 729
Flags: HMW
LayerCount: 2
Fore
SplineSet
307 -10 m 0
 148 -10 54 92 54 255 c 0
 54 536 264 760 477 760 c 0
 626 760 730 658 730 495 c 0
 730 214 530 -10 307 -10 c 0
477 748 m 0
 305 748 184 415 184 183 c 0
 184 80 213 2 307 2 c 0
 489 2 600 335 600 567 c 0
 600 650 571 748 477 748 c 0
EndSplineSet
EndChar

StartChar: P
Encoding: 80 80 27
GlifName: P_
Width: 631
Flags: HMW
LayerCount: 2
Fore
SplineSet
214 750 m 1
 333 750 l 1
 158 0 l 1
 39 0 l 1
 214 750 l 1
-41 14 m 1
 258 14 l 1
 258 0 l 1
 -41 0 l 1
 -41 14 l 1
333 333 m 2
 223 333 l 1
 223 347 l 1
 323 347 l 2
 455 347 527 489 527 598 c 0
 527 657 509 736 423 736 c 2
 124 736 l 1
 124 750 l 1
 433 750 l 2
 564 750 661 702 661 582 c 0
 661 432 534 333 333 333 c 2
EndSplineSet
EndChar

StartChar: Q
Encoding: 81 81 28
GlifName: Q_
Width: 723
Flags: HMW
LayerCount: 2
Fore
SplineSet
446 -236 m 1
 446 -250 l 1
 241 -250 190 -171 240 2 c 1
 285 -5 333 -4 379 2 c 1
 329 -180 367 -236 446 -236 c 1
477 748 m 0
 305 748 184 415 184 183 c 0
 184 81 213 2 307 2 c 0
 489 2 600 335 600 567 c 0
 600 649 571 748 477 748 c 0
307 -10 m 0
 148 -10 54 92 54 255 c 0
 54 536 264 760 477 760 c 0
 626 760 730 658 730 495 c 0
 730 214 530 -10 307 -10 c 0
EndSplineSet
EndChar

StartChar: R
Encoding: 82 82 29
GlifName: R_
Width: 735
Flags: HMW
LayerCount: 2
Fore
SplineSet
667 12 m 1
 631 -2 607 -6 567 -6 c 0
 316 -6 585 378 339 378 c 2
 238 378 l 1
 238 385 l 1
 369 385 l 2
 722 385 495 13 614 13 c 0
 634 13 649 19 663 25 c 1
 667 12 l 1
234 750 m 1
 353 750 l 1
 178 0 l 1
 59 0 l 1
 234 750 l 1
-39 14 m 1
 288 14 l 1
 288 0 l 1
 -39 0 l 1
 -39 14 l 1
375 383 m 2
 238 383 l 1
 238 392 l 1
 365 392 l 2
 503 392 565 521 565 616 c 0
 565 665 554 736 461 736 c 2
 126 736 l 1
 126 750 l 1
 475 750 l 2
 606 750 696 710 696 600 c 0
 696 460 576 383 375 383 c 2
EndSplineSet
Substitution2: "'ss01' Style Set 1 lookup 2-1" R.alt
EndChar

StartChar: S
Encoding: 83 83 30
GlifName: S_
Width: 570
Flags: HMW
LayerCount: 2
Fore
SplineSet
548 599 m 1
 546 613 523 675 513 690 c 1
 596 760 l 1
 606 760 l 1
 559 547 l 1
 545 547 l 1
 548 599 l 1
559 547 m 1
 545 547 l 1
 539 663 480 744 369 744 c 0
 295 744 213 693 213 615 c 0
 213 436 521 496 521 232 c 0
 521 92 391 -15 242 -15 c 0
 86 -15 38 87 29 207 c 1
 43 207 l 1
 50 102 97 0 235 0 c 0
 339 0 422 61 422 155 c 0
 422 358 115 301 115 527 c 0
 115 681 263 760 362 760 c 0
 490 760 553 678 559 547 c 1
-11 -10 m 1
 -21 -10 l 1
 29 207 l 1
 43 207 l 1
 46 144 l 1
 49 129 69 77 76 67 c 1
 -11 -10 l 1
EndSplineSet
EndChar

StartChar: T
Encoding: 84 84 31
GlifName: T_
Width: 642
Flags: HMW
LayerCount: 2
Fore
SplineSet
98 14 m 1
 437 14 l 1
 437 0 l 1
 98 0 l 1
 98 14 l 1
375 750 m 1
 494 750 l 1
 320 0 l 1
 201 0 l 1
 375 750 l 1
575 736 m 2
 284 736 l 2
 171 736 123 645 88 519 c 1
 74 519 l 1
 127 750 l 1
 742 750 l 1
 689 519 l 1
 675 519 l 1
 698 646 688 736 575 736 c 2
EndSplineSet
EndChar

StartChar: U
Encoding: 85 85 32
GlifName: U_
Width: 694
Flags: HMW
LayerCount: 2
Fore
SplineSet
594 750 m 1
 790 750 l 1
 790 736 l 1
 594 736 l 1
 594 750 l 1
122 750 m 1
 432 750 l 1
 432 736 l 1
 122 736 l 1
 122 750 l 1
692 750 m 1
 706 750 l 1
 586 230 l 2
 550 73 471 -15 313 -15 c 0
 150 -15 60 66 98 230 c 2
 218 750 l 1
 336 750 l 1
 216 240 l 2
 187 115 208 4 338 4 c 0
 459 4 538 83 572 230 c 2
 692 750 l 1
EndSplineSet
EndChar

StartChar: V
Encoding: 86 86 33
GlifName: V_
Width: 738
Flags: HMW
LayerCount: 2
Fore
SplineSet
839 736 m 1
 619 736 l 1
 619 750 l 1
 839 750 l 1
 839 736 l 1
433 736 m 1
 119 736 l 1
 119 750 l 1
 433 750 l 1
 433 736 l 1
381 124 m 1
 741 750 l 1
 758 750 l 1
 318 -14 l 1
 284 -14 l 1
 189 750 l 1
 318 750 l 1
 381 124 l 1
EndSplineSet
EndChar

StartChar: W
Encoding: 87 87 34
GlifName: W_
Width: 1015
Flags: HMW
LayerCount: 2
Fore
SplineSet
389 150 m 1
 550 429 l 1
 566 429 l 1
 313 -10 l 1
 280 -10 l 1
 207 750 l 1
 333 750 l 1
 389 150 l 1
612 417 m 1
 596 417 l 1
 789 750 l 1
 805 750 l 1
 612 417 l 1
1116 736 m 1
 924 736 l 1
 924 750 l 1
 1116 750 l 1
 1116 736 l 1
878 736 m 1
 119 736 l 1
 119 750 l 1
 878 750 l 1
 878 736 l 1
668 150 m 1
 1016 750 l 1
 1032 750 l 1
 592 -10 l 1
 565 -10 l 1
 492 750 l 1
 612 750 l 1
 668 150 l 1
EndSplineSet
EndChar

StartChar: X
Encoding: 88 88 35
GlifName: X_
Width: 745
Flags: HMW
LayerCount: 2
Fore
SplineSet
408 377 m 1
 386 377 l 1
 694 748 l 1
 714 748 l 1
 408 377 l 1
62 0 m 1
 41 0 l 1
 394 417 l 1
 414 417 l 1
 62 0 l 1
379 14 m 1
 683 14 l 1
 683 0 l 1
 379 0 l 1
 379 14 l 1
-51 14 m 1
 189 14 l 1
 189 0 l 1
 -51 0 l 1
 -51 14 l 1
458 736 m 1
 154 736 l 1
 154 750 l 1
 458 750 l 1
 458 736 l 1
806 736 m 1
 586 736 l 1
 586 750 l 1
 806 750 l 1
 806 736 l 1
614 0 m 1
 475 0 l 1
 224 750 l 1
 359 750 l 1
 614 0 l 1
EndSplineSet
EndChar

StartChar: Y
Encoding: 89 89 36
GlifName: Y_
Width: 735
Flags: HMW
LayerCount: 2
Fore
SplineSet
836 736 m 1
 626 736 l 1
 626 750 l 1
 836 750 l 1
 836 736 l 1
434 736 m 1
 119 736 l 1
 119 750 l 1
 434 750 l 1
 434 736 l 1
160 14 m 1
 469 14 l 1
 469 0 l 1
 160 0 l 1
 160 14 l 1
452 397 m 1
 738 748 l 1
 758 748 l 1
 453 373 l 1
 369 0 l 1
 250 0 l 1
 335 377 l 1
 189 750 l 1
 326 750 l 1
 452 397 l 1
EndSplineSet
EndChar

StartChar: Z
Encoding: 90 90 37
GlifName: Z_
Width: 571
Flags: HMW
LayerCount: 2
Fore
SplineSet
488 736 m 1
 325 736 l 2
 188 736 144 681 111 574 c 1
 97 574 l 1
 138 750 l 1
 637 750 l 1
 637 736 l 1
 98 14 l 1
 291 14 l 2
 428 14 470 70 509 196 c 1
 523 196 l 1
 478 0 l 1
 -51 0 l 1
 -51 14 l 1
 488 736 l 1
EndSplineSet
EndChar

StartChar: a
Encoding: 97 97 38
GlifName: a
Width: 622
VWidth: 1155
Flags: HMW
LayerCount: 2
Fore
SplineSet
378 314 m 0
 378 383 352 434 311 434 c 0
 227 434 142 269 142 135 c 0
 142 65 164 20 209 20 c 0
 309 20 378 207 378 314 c 0
389 314 m 0
 389 206 318 -10 177 -10 c 0
 108 -10 18 30 18 160 c 0
 18 360 175 470 276 470 c 0
 352 470 389 406 389 314 c 0
599 163 m 1
 561 63 498 -10 411 -10 c 0
 358 -10 335 15 335 65 c 0
 335 70 336 82 337 88 c 2
 358 182 l 1
 380 258 l 1
 386 311 l 1
 422 460 l 1
 531 460 l 1
 432 53 l 2
 431 47 430 40 430 35 c 0
 430 24 435 16 448 16 c 0
 502 16 559 92 586 167 c 1
 599 163 l 1
EndSplineSet
EndChar

StartChar: b
Encoding: 98 98 39
GlifName: b
Width: 584
VWidth: 1155
Flags: HMW
LayerCount: 2
Fore
SplineSet
209 736 m 1
 134 736 l 1
 134 750 l 1
 322 750 l 1
 180 130 l 1
 180 62 196 3 249 3 c 0
 343 3 427 197 427 331 c 0
 427 397 405 439 360 439 c 0
 293 439 229 347 202 230 c 1
 195 230 l 1
 232 402 313 469 394 469 c 0
 461 469 551 438 551 310 c 0
 551 100 402 -10 247 -10 c 0
 154 -10 98 49 68 120 c 1
 209 736 l 1
EndSplineSet
EndChar

StartChar: c
Encoding: 99 99 40
GlifName: c
Width: 482
VWidth: 1155
Flags: HMW
LayerCount: 2
Fore
SplineSet
437 378 m 1
 429 416 390 455 326 455 c 0
 203 455 142 262 142 138 c 0
 142 54 161 11 211 11 c 0
 274 11 352 54 402 143 c 1
 415 143 l 1
 365 46 276 -10 181 -10 c 0
 106 -10 18 30 18 158 c 0
 18 348 167 470 306 470 c 0
 398 470 461 422 461 348 c 0
 461 295 427 269 391 269 c 0
 360 269 324 289 324 333 c 0
 324 374 359 397 390 397 c 0
 417 397 432 386 437 378 c 1
EndSplineSet
EndChar

StartChar: d
Encoding: 100 100 41
GlifName: d
Width: 626
VWidth: 1155
Flags: HMW
LayerCount: 2
Fore
SplineSet
605 163 m 1
 567 63 505 -10 418 -10 c 0
 365 -10 337 13 337 67 c 0
 337 72 338 83 339 89 c 2
 358 182 l 1
 380 259 l 1
 386 310 l 1
 482 736 l 1
 391 736 l 1
 391 750 l 1
 594 750 l 1
 439 53 l 2
 438 47 437 40 437 35 c 0
 437 24 442 16 455 16 c 0
 508 16 566 92 593 167 c 1
 605 163 l 1
378 314 m 0
 378 383 352 434 311 434 c 0
 227 434 142 269 142 135 c 0
 142 65 164 20 209 20 c 0
 309 20 378 207 378 314 c 0
389 314 m 0
 389 206 318 -10 177 -10 c 0
 108 -10 18 30 18 160 c 0
 18 360 175 470 275 470 c 0
 351 470 389 406 389 314 c 0
EndSplineSet
EndChar

StartChar: e
Encoding: 101 101 42
GlifName: e
Width: 488
VWidth: 1155
Flags: HMW
LayerCount: 2
Fore
SplineSet
142 130 m 0
 142 62 157 10 212 10 c 0
 295 10 370 72 410 143 c 1
 423 143 l 1
 382 66 298 -10 187 -10 c 0
 100 -10 18 38 18 158 c 0
 18 349 172 470 309 470 c 0
 403 470 470 442 470 370 c 0
 470 218 236 212 125 212 c 1
 125 225 l 1
 220 225 360 242 360 377 c 0
 360 420 351 458 318 458 c 0
 237 458 142 290 142 130 c 0
EndSplineSet
EndChar

StartChar: f
Encoding: 102 102 43
GlifName: f
Width: 373
VWidth: 1155
Flags: HMW
LayerCount: 2
Fore
SplineSet
62 460 m 1
 400 460 l 1
 400 446 l 1
 62 446 l 1
 62 460 l 1
500 696 m 1
 491 716 464 746 409 746 c 0
 339 746 292 662 270 540 c 2
 170 -12 l 2
 145 -151 52 -260 -78 -260 c 0
 -165 -260 -204 -201 -204 -155 c 0
 -204 -110 -175 -85 -139 -85 c 0
 -108 -85 -73 -103 -73 -147 c 0
 -73 -191 -106 -212 -140 -212 c 0
 -156 -212 -169 -204 -172 -196 c 1
 -164 -216 -138 -246 -83 -246 c 0
 -13 -246 36 -162 57 -40 c 2
 155 512 l 2
 179 652 275 760 405 760 c 0
 492 760 531 701 531 655 c 0
 531 610 502 585 466 585 c 0
 435 585 400 603 400 647 c 0
 400 691 433 712 467 712 c 0
 483 712 497 703 500 696 c 1
EndSplineSet
EndChar

StartChar: g
Encoding: 103 103 44
GlifName: g
Width: 589
VWidth: 1155
Flags: HMW
LayerCount: 2
Fore
SplineSet
139 -11 m 1
 98 -25 64 -81 64 -141 c 0
 64 -202 90 -244 170 -244 c 0
 265 -244 374 -194 374 -95 c 0
 374 -41 345 -19 290 -19 c 0
 269 -19 221 -19 199 -19 c 0
 109 -19 37 -5 37 57 c 0
 37 136 149 172 240 172 c 1
 239 165 l 1
 206 165 118 151 118 105 c 0
 118 80 167 75 222 75 c 0
 257 75 279 76 307 76 c 0
 388 76 431 44 431 -42 c 0
 431 -171 301 -260 163 -260 c 0
 48 -260 -42 -230 -42 -152 c 0
 -42 -53 86 -11 131 -11 c 2
 139 -11 l 1
607 390 m 0
 607 341 577 324 550 324 c 0
 523 324 496 342 496 379 c 0
 496 409 519 431 550 431 c 0
 568 431 583 419 586 412 c 1
 578 439 554 451 525 451 c 0
 485 451 430 418 389 339 c 1
 377 347 l 1
 419 430 483 465 525 465 c 0
 579 465 607 430 607 390 c 0
220 174 m 0
 297 174 339 303 339 381 c 0
 339 421 323 456 288 456 c 0
 211 456 169 327 169 249 c 0
 169 209 185 174 220 174 c 0
219 160 m 0
 132 160 60 195 60 285 c 0
 60 395 172 470 289 470 c 0
 376 470 446 435 446 345 c 0
 446 235 336 160 219 160 c 0
EndSplineSet
EndChar

StartChar: h
Encoding: 104 104 45
GlifName: h
Width: 596
VWidth: 1155
Flags: HMW
LayerCount: 2
Fore
SplineSet
380 307 m 2
 406 384 405 446 363 446 c 0
 299 446 206 326 171 173 c 1
 161 173 l 1
 198 325 278 470 393 470 c 0
 492 470 521 401 493 315 c 2
 407 50 l 2
 405 44 404 37 404 32 c 0
 404 21 410 14 423 14 c 0
 478 14 532 90 560 167 c 1
 573 163 l 1
 535 63 476 -10 389 -10 c 0
 334 -10 304 16 304 63 c 0
 304 78 307 90 309 98 c 2
 380 307 l 2
191 736 m 1
 124 736 l 1
 124 750 l 1
 304 750 l 1
 132 0 l 1
 22 0 l 1
 191 736 l 1
EndSplineSet
EndChar

StartChar: i
Encoding: 105 105 46
GlifName: i
Width: 359
VWidth: 1155
Flags: HMW
LayerCount: 2
Fore
SplineSet
157 690 m 0
 157 729 187 760 226 760 c 0
 265 760 297 729 297 690 c 0
 297 651 265 620 226 620 c 0
 187 620 157 651 157 690 c 0
321 163 m 1
 283 63 220 -10 133 -10 c 0
 80 -10 53 13 53 67 c 0
 53 72 54 83 55 89 c 2
 138 446 l 1
 67 446 l 1
 67 460 l 1
 251 460 l 1
 154 53 l 2
 153 47 152 40 152 35 c 0
 152 24 157 16 170 16 c 0
 224 16 280 90 308 167 c 1
 321 163 l 1
EndSplineSet
EndChar

StartChar: j
Encoding: 106 106 47
GlifName: j
Width: 282
VWidth: 1155
Flags: HMW
LayerCount: 2
Fore
SplineSet
165 690 m 0
 165 729 196 760 235 760 c 0
 274 760 305 729 305 690 c 0
 305 651 274 620 235 620 c 0
 196 620 165 651 165 690 c 0
-155 -187 m 1
 -145 -217 -112 -245 -72 -245 c 0
 20 -245 20 -100 48 20 c 2
 148 446 l 1
 56 446 l 1
 56 460 l 1
 257 460 l 1
 159 -12 l 2
 133 -137 63 -260 -67 -260 c 0
 -142 -260 -184 -195 -184 -152 c 0
 -184 -107 -148 -77 -112 -77 c 0
 -81 -77 -51 -99 -51 -138 c 0
 -51 -179 -85 -203 -122 -203 c 0
 -135 -203 -148 -196 -155 -187 c 1
EndSplineSet
EndChar

StartChar: k
Encoding: 107 107 48
GlifName: k
Width: 582
VWidth: 1155
Flags: HMW
LayerCount: 2
Fore
SplineSet
559 163 m 1
 521 63 460 -10 375 -10 c 0
 322 -10 294 13 294 67 c 0
 294 72 295 83 296 89 c 2
 307 140 l 2
 320 198 354 275 289 275 c 0
 227 275 211 225 202 190 c 1
 192 190 l 1
 213 279 259 290 306 290 c 0
 375 290 439 251 409 121 c 2
 390 39 l 2
 390 37 390 32 390 30 c 0
 390 19 397 14 410 14 c 0
 463 14 519 91 546 167 c 1
 559 163 l 1
189 323 m 1
 205 315 l 1
 208 277 224 255 257 255 c 0
 299 255 316 297 342 361 c 0
 370 429 407 470 459 470 c 0
 508 470 549 437 549 381 c 0
 549 334 520 313 489 313 c 0
 458 313 431 336 431 371 c 0
 431 403 455 426 487 426 c 0
 507 426 520 415 525 407 c 1
 519 438 493 456 461 456 c 0
 416 456 384 423 357 357 c 0
 330 289 307 242 257 242 c 0
 217 242 189 271 189 323 c 1
219 736 m 1
 132 736 l 1
 132 750 l 1
 332 750 l 1
 158 0 l 1
 48 0 l 1
 219 736 l 1
EndSplineSet
EndChar

StartChar: l
Encoding: 108 108 49
GlifName: l
Width: 333
VWidth: 1155
Flags: HMW
LayerCount: 2
Fore
SplineSet
311 163 m 1
 273 63 210 -10 123 -10 c 0
 70 -10 43 13 43 67 c 0
 43 72 44 83 45 89 c 2
 194 736 l 1
 103 736 l 1
 103 750 l 1
 306 750 l 1
 144 53 l 2
 143 47 142 40 142 35 c 0
 142 24 147 16 160 16 c 0
 214 16 271 93 298 167 c 1
 311 163 l 1
EndSplineSet
EndChar

StartChar: m
Encoding: 109 109 50
GlifName: m
Width: 869
VWidth: 1155
Flags: HMW
LayerCount: 2
Fore
SplineSet
653 307 m 2
 679 384 682 446 640 446 c 0
 577 446 490 328 452 173 c 1
 442 173 l 1
 480 324 557 470 671 470 c 0
 770 470 795 401 767 315 c 2
 680 50 l 2
 678 44 677 37 677 32 c 0
 677 21 683 13 696 13 c 0
 752 13 806 92 833 167 c 1
 846 163 l 1
 808 63 749 -10 662 -10 c 0
 607 -10 577 16 577 63 c 0
 577 78 580 90 582 98 c 2
 653 307 l 2
410 0 m 17
 300 0 l 1
 375 308 l 2
 394 387 405 446 363 446 c 0
 301 446 212 329 174 173 c 1
 164 173 l 1
 202 324 279 470 394 470 c 0
 493 470 509 404 488 319 c 2
 410 0 l 17
130 446 m 1
 63 446 l 1
 63 460 l 1
 243 460 l 1
 133 0 l 1
 23 0 l 1
 130 446 l 1
EndSplineSet
EndChar

StartChar: n
Encoding: 110 110 51
GlifName: n
Width: 601
VWidth: 1155
Flags: HMW
LayerCount: 2
Fore
SplineSet
130 446 m 1
 63 446 l 1
 63 460 l 1
 243 460 l 1
 133 0 l 1
 23 0 l 1
 130 446 l 1
383 307 m 2
 409 384 408 446 366 446 c 0
 302 446 211 326 174 173 c 1
 164 173 l 1
 203 325 281 470 396 470 c 0
 495 470 524 401 496 315 c 2
 410 50 l 2
 408 44 407 37 407 32 c 0
 407 21 413 14 426 14 c 0
 481 14 537 90 565 167 c 1
 578 163 l 1
 540 63 479 -10 392 -10 c 0
 337 -10 307 16 307 63 c 0
 307 78 309 89 312 98 c 2
 383 307 l 2
EndSplineSet
EndChar

StartChar: o
Encoding: 111 111 52
GlifName: o
Width: 540
VWidth: 1155
Flags: HMW
LayerCount: 2
Fore
SplineSet
205 -10 m 0
 112 -10 18 34 18 162 c 0
 18 352 167 470 320 470 c 0
 413 470 507 426 507 298 c 0
 507 108 358 -10 205 -10 c 0
205 5 m 0
 322 5 387 210 387 334 c 0
 387 411 368 455 320 455 c 0
 203 455 138 250 138 126 c 0
 138 49 157 5 205 5 c 0
EndSplineSet
EndChar

StartChar: p
Encoding: 112 112 53
GlifName: p
Width: 576
VWidth: 1155
Flags: HMW
LayerCount: 2
Fore
SplineSet
187 145 m 0
 187 76 214 26 255 26 c 0
 339 26 424 190 424 324 c 0
 424 394 401 439 356 439 c 0
 256 439 187 252 187 145 c 0
176 145 m 0
 176 253 247 470 388 470 c 0
 457 470 548 429 548 299 c 0
 548 99 391 -10 291 -10 c 0
 215 -10 176 53 176 145 c 0
-92 -236 m 1
 153 -236 l 1
 153 -250 l 1
 -92 -250 l 1
 -92 -236 l 1
134 446 m 1
 65 446 l 1
 65 460 l 1
 247 460 l 1
 208 290 l 1
 187 220 l 1
 181 167 l 1
 83 -250 l 1
 -27 -250 l 1
 134 446 l 1
EndSplineSet
EndChar

StartChar: q
Encoding: 113 113 54
GlifName: q
Width: 567
VWidth: 1155
Flags: HMW
LayerCount: 2
Fore
SplineSet
433 -236 m 1
 433 -250 l 1
 192 -250 l 1
 192 -236 l 1
 433 -236 l 1
363 -250 m 17
 257 -250 l 1
 358 180 l 1
 359 182 379 259 380 261 c 1
 386 311 l 1
 419 450 l 1
 529 470 l 1
 363 -250 l 17
378 314 m 0
 378 383 352 434 311 434 c 0
 227 434 142 269 142 135 c 0
 142 65 164 20 209 20 c 0
 309 20 378 207 378 314 c 0
389 314 m 0
 389 206 318 -10 177 -10 c 0
 108 -10 18 30 18 160 c 0
 18 360 175 470 275 470 c 0
 351 470 389 406 389 314 c 0
EndSplineSet
EndChar

StartChar: r
Encoding: 114 114 55
GlifName: r
Width: 433
VWidth: 1155
Flags: HMW
LayerCount: 2
Fore
SplineSet
455 379 m 0
 455 340 431 308 387 308 c 0
 348 308 318 331 318 373 c 0
 318 412 350 441 387 441 c 0
 401 441 411 433 416 424 c 1
 407 444 380 457 354 457 c 0
 254 457 201 271 177 173 c 1
 167 173 l 1
 192 293 247 470 355 470 c 0
 405 470 455 434 455 379 c 0
135 446 m 1
 63 446 l 1
 63 460 l 1
 243 460 l 1
 138 0 l 1
 28 0 l 1
 135 446 l 1
EndSplineSet
EndChar

StartChar: s
Encoding: 115 115 56
GlifName: s
Width: 422
VWidth: 1155
Flags: HMW
LayerCount: 2
Fore
SplineSet
346 402 m 1
 335 428 294 455 231 455 c 0
 175 455 136 428 136 386 c 0
 136 286 355 279 355 146 c 0
 355 52 263 -12 160 -12 c 0
 49 -12 -2 52 -2 107 c 0
 -2 150 32 173 64 173 c 0
 91 173 125 155 125 113 c 0
 125 76 95 54 64 54 c 0
 37 54 27 68 23 76 c 1
 33 43 68 2 160 2 c 0
 230 2 274 45 274 88 c 0
 274 183 58 177 58 323 c 0
 58 422 152 469 230 469 c 0
 318 469 374 421 374 372 c 0
 374 331 348 312 316 312 c 0
 289 312 259 330 259 367 c 0
 259 399 284 421 310 421 c 0
 333 421 341 411 346 402 c 1
EndSplineSet
EndChar

StartChar: t
Encoding: 116 116 57
GlifName: t
Width: 341
VWidth: 1155
Flags: HMW
LayerCount: 2
Fore
SplineSet
43 460 m 1
 333 460 l 1
 333 446 l 1
 43 446 l 1
 43 460 l 1
317 163 m 1
 279 63 216 -10 129 -10 c 0
 76 -10 48 13 48 67 c 0
 48 72 49 83 50 89 c 2
 152 560 l 1
 261 560 l 1
 150 53 l 2
 149 47 148 40 148 35 c 0
 148 24 153 16 166 16 c 0
 221 16 276 92 303 167 c 1
 317 163 l 1
EndSplineSet
EndChar

StartChar: u
Encoding: 117 117 58
GlifName: u
Width: 632
VWidth: 1155
Flags: HMW
LayerCount: 2
Fore
SplineSet
247 460 m 1
 174 146 l 2
 156 67 155 16 197 16 c 0
 256 16 350 131 389 287 c 1
 399 287 l 1
 359 134 279 -10 164 -10 c 0
 67 -10 47 59 65 141 c 2
 133 446 l 1
 65 446 l 1
 65 460 l 1
 247 460 l 1
609 163 m 1
 571 63 509 -10 422 -10 c 0
 369 -10 341 13 341 67 c 0
 341 72 342 83 343 89 c 2
 427 460 l 1
 537 460 l 1
 442 53 l 2
 441 47 440 40 440 35 c 0
 440 24 445 16 458 16 c 0
 514 16 570 94 597 167 c 1
 609 163 l 1
EndSplineSet
EndChar

StartChar: v
Encoding: 118 118 59
GlifName: v
Width: 562
VWidth: 1155
Flags: HMW
LayerCount: 2
Fore
SplineSet
242 136 m 2
 229 57 217 12 273 12 c 0
 363 12 531 187 531 344 c 0
 531 372 526 389 521 399 c 1
 519 375 495 335 453 335 c 0
 407 335 385 371 385 402 c 0
 385 438 414 469 457 469 c 0
 522 469 544 407 544 344 c 0
 544 186 380 -10 249 -10 c 0
 146 -10 115 51 131 137 c 2
 181 407 l 2
 182 413 183 420 183 425 c 0
 183 436 176 444 163 444 c 0
 106 444 54 365 27 293 c 1
 13 297 l 1
 53 397 110 470 201 470 c 0
 256 470 282 444 282 399 c 0
 282 384 280 373 279 364 c 2
 242 136 l 2
EndSplineSet
Substitution2: "'ss04' Style Set 4 lookup 5-1" v.alt
EndChar

StartChar: w
Encoding: 119 119 60
GlifName: w
Width: 845
VWidth: 1155
Flags: HMW
LayerCount: 2
Fore
SplineSet
204 148 m 2
 178 71 185 15 231 15 c 0
 300 15 389 134 427 287 c 1
 438 287 l 1
 400 137 320 -10 197 -10 c 0
 96 -10 65 57 93 141 c 2
 181 407 l 2
 183 413 184 420 184 425 c 0
 184 436 178 444 165 444 c 0
 107 444 55 367 27 293 c 1
 13 297 l 1
 53 397 110 470 201 470 c 0
 254 470 283 445 283 398 c 0
 283 383 280 371 278 364 c 2
 204 148 l 2
468 460 m 1
 578 460 l 1
 512 184 l 2
 492 100 496 10 578 10 c 0
 722 10 813 230 813 344 c 0
 813 368 810 387 806 395 c 1
 803 364 775 335 734 335 c 0
 688 335 667 371 667 402 c 0
 667 438 697 469 739 469 c 0
 800 469 827 411 827 344 c 0
 827 234 745 -10 556 -10 c 0
 465 -10 387 38 405 198 c 1
 468 460 l 1
EndSplineSet
EndChar

StartChar: x
Encoding: 120 120 61
GlifName: x
Width: 560
VWidth: 1155
Flags: HMW
LayerCount: 2
Fore
SplineSet
282 244 m 1
 342 342 396 470 481 470 c 0
 546 470 570 422 570 386 c 0
 570 346 546 318 504 318 c 0
 460 318 441 354 441 383 c 0
 441 414 465 446 501 446 c 0
 516 446 527 439 534 429 c 1
 524 443 510 457 484 457 c 0
 405 457 355 333 296 237 c 1
 282 244 l 1
291 263 m 1
 213 133 148 -10 63 -10 c 0
 -2 -10 -26 38 -26 74 c 0
 -26 114 -2 142 40 142 c 0
 84 142 103 106 103 77 c 0
 103 46 79 14 42 14 c 0
 26 14 14 23 9 33 c 1
 20 14 36 3 60 3 c 0
 139 3 203 143 279 270 c 1
 291 263 l 1
515 109 m 1
 482 21 435 -10 375 -10 c 0
 310 -10 279 25 263 77 c 0
 238 162 193 349 167 421 c 0
 163 432 158 445 140 445 c 0
 109 445 77 401 56 343 c 1
 43 349 l 1
 76 437 116 472 186 472 c 0
 251 472 278 437 294 385 c 0
 320 296 356 141 391 44 c 0
 395 33 408 20 421 20 c 0
 445 20 481 55 503 114 c 1
 515 109 l 1
EndSplineSet
EndChar

StartChar: y
Encoding: 121 121 62
GlifName: y
Width: 590
VWidth: 1155
Flags: HMW
LayerCount: 2
Fore
SplineSet
331 -73 m 1
 254 59 183 345 156 417 c 0
 152 428 146 441 128 441 c 0
 98 441 63 399 44 341 c 1
 31 347 l 1
 64 437 110 470 176 470 c 0
 237 470 267 434 283 382 c 0
 310 292 345 127 410 30 c 1
 407 26 334 -70 331 -73 c 1
80 -260 m 0
 4 -260 -40 -208 -40 -145 c 0
 -40 -106 -12 -69 30 -69 c 0
 61 -69 94 -89 94 -131 c 0
 94 -168 68 -193 35 -193 c 0
 5 -193 -15 -179 -23 -158 c 1
 -23 -199 13 -246 79 -246 c 0
 254 -246 561 247 561 363 c 0
 561 380 556 400 550 410 c 1
 553 373 523 340 486 340 c 0
 441 340 420 376 420 405 c 0
 420 439 447 470 490 470 c 0
 553 470 576 409 576 364 c 0
 576 234 265 -260 80 -260 c 0
EndSplineSet
EndChar

StartChar: z
Encoding: 122 122 63
GlifName: z
Width: 418
VWidth: 1155
Flags: HMW
LayerCount: 2
Fore
SplineSet
26 262 m 1
 73 462 l 1
 127 432 187 423 239 423 c 0
 291 423 374 430 408 461 c 1
 421 447 l 1
 325 382 250 327 177 327 c 0
 133 327 92 341 66 363 c 1
 40 262 l 1
 26 262 l 1
-15 10 m 1
 -42 3 l 1
 395 441 l 1
 421 447 l 1
 -15 10 l 1
387 152 m 1
 378 133 364 118 336 118 c 0
 308 118 279 142 279 176 c 0
 279 215 310 235 339 235 c 0
 373 235 402 214 402 169 c 0
 402 115 343 -10 249 -10 c 0
 184 -10 157 39 91 39 c 0
 43 39 2 22 -30 -10 c 1
 -42 3 l 1
 48 63 113 111 183 111 c 0
 242 111 258 62 317 62 c 0
 363 62 384 123 387 152 c 1
EndSplineSet
EndChar

StartChar: comma
Encoding: 44 44 65
GlifName: comma
Width: 239
Flags: HMW
LayerCount: 2
Fore
SplineSet
16 59 m 0
 16 98 51 132 95 132 c 0
 140 132 174 103 174 42 c 0
 174 -62 66 -156 -36 -156 c 1
 -36 -142 l 1
 45 -142 153 -69 157 34 c 1
 148 9 123 -10 89 -10 c 0
 41 -10 16 23 16 59 c 0
EndSplineSet
EndChar

StartChar: exclam
Encoding: 33 33 67
GlifName: exclam
Width: 343
Flags: HMW
LayerCount: 2
Fore
SplineSet
352 683 m 0
 336 573 233 380 192 228 c 1
 178 228 l 1
 208 378 208 521 208 647 c 0
 208 709 235 758 288 758 c 0
 329 758 358 726 352 683 c 0
73 61 m 0
 73 101 104 132 144 132 c 0
 184 132 215 101 215 61 c 0
 215 21 184 -10 144 -10 c 0
 104 -10 73 21 73 61 c 0
EndSplineSet
EndChar

StartChar: quotesingle
Encoding: 39 39 70
GlifName: quotesingle
Width: 222
Flags: HMW
LayerCount: 2
Fore
SplineSet
264 679 m 0
 245 604 192 574 162 474 c 1
 148 474 l 1
 173 566 151 597 140 672 c 24
 139 679 139 685 139 691 c 0
 139 734 170 760 207 760 c 0
 242 760 267 734 267 701 c 0
 267 694 266 686 264 679 c 0
EndSplineSet
EndChar

StartChar: question
Encoding: 63 63 75
GlifName: question
Width: 564
Flags: HMW
LayerCount: 2
Fore
SplineSet
294 342 m 1
 269 223 l 1
 255 223 l 1
 283 351 l 1
 400 382 486 499 486 618 c 0
 486 688 467 745 386 745 c 0
 276 745 201 674 191 624 c 1
 196 634 213 644 233 644 c 0
 266 644 298 620 298 581 c 0
 298 537 262 515 231 515 c 0
 193 515 166 542 166 587 c 0
 166 669 264 760 396 760 c 0
 507 760 609 712 609 592 c 0
 609 448 449 350 294 342 c 1
EndSplineSet
Refer: 1 46 N 1 0 0 1 149 0 2
EndChar

StartChar: parenleft
Encoding: 40 40 76
GlifName: parenleft
Width: 366
Flags: HMW
LayerCount: 2
Fore
SplineSet
282 -158 m 1
 276 -170 l 1
 163 -120 83 12 83 185 c 0
 83 478 294 720 487 800 c 1
 493 788 l 1
 339 700 192 370 192 132 c 0
 192 -28 220 -96 282 -158 c 1
EndSplineSet
EndChar

StartChar: asterisk
Encoding: 42 42 78
GlifName: asterisk
Width: 635
VWidth: 1155
Flags: HMW
LayerCount: 2
Fore
SplineSet
262 664 m 0
 322 617 289 564 382 511 c 1
 374 500 l 1
 279 555 262 521 192 550 c 0
 149 569 131 613 151 649 c 0
 173 688 223 690 262 664 c 0
150 452 m 0
 221 478 279 457 374 512 c 1
 381 500 l 1
 286 445 265 397 205 349 c 0
 168 322 121 316 99 354 c 0
 78 390 104 436 150 452 c 0
280 307 m 0
 301 382 357 412 372 506 c 1
 384 506 l 1
 364 392 402 380 402 305 c 0
 402 256 373 220 332 220 c 0
 293 220 266 254 280 307 c 0
495 350 m 0
 435 397 467 448 374 501 c 1
 381 511 l 1
 476 456 494 491 564 462 c 0
 607 443 625 399 605 363 c 0
 583 325 532 325 495 350 c 0
606 560 m 0
 535 534 477 554 382 499 c 1
 375 511 l 1
 470 566 491 615 551 663 c 0
 588 690 635 696 657 658 c 0
 678 622 652 576 606 560 c 0
476 705 m 0
 456 630 399 600 384 506 c 1
 372 506 l 1
 392 620 354 632 354 707 c 0
 354 756 383 792 424 792 c 0
 463 792 489 758 476 705 c 0
EndSplineSet
EndChar

StartChar: at
Encoding: 64 64 79
GlifName: at
Width: 1010
VWidth: 1155
Flags: HMW
LayerCount: 2
Fore
SplineSet
610 354 m 0
 610 198 525 70 419 70 c 0
 337 70 268 126 268 230 c 0
 268 380 381 529 504 529 c 0
 588 529 610 436 610 354 c 0
598 346 m 0
 598 388 591 500 528 500 c 0
 462 500 393 358 393 234 c 0
 393 167 408 99 458 99 c 0
 521 99 598 216 598 346 c 0
576 210 m 2
 648 520 l 1
 762 520 l 1
 690 209 l 2
 685 189 646 89 716 89 c 0
 840 89 941 243 941 401 c 0
 941 579 831 776 584 776 c 0
 301 776 69 517 69 211 c 0
 69 -92 243 -200 419 -200 c 0
 582 -200 687 -152 775 -54 c 1
 785 -64 l 1
 701 -162 582 -214 419 -214 c 0
 236 -214 55 -103 55 211 c 0
 55 524 292 790 585 790 c 0
 838 790 955 584 955 401 c 0
 955 239 862 68 685 68 c 0
 584 68 562 148 576 210 c 2
EndSplineSet
EndChar

StartChar: dollar
Encoding: 36 36 80
GlifName: dollar
Width: 573
Flags: HMW
LayerCount: 2
Fore
SplineSet
359 830 m 1
 375 830 l 1
 165 -80 l 1
 149 -80 l 1
 359 830 l 1
446 830 m 1
 462 830 l 1
 252 -80 l 1
 236 -80 l 1
 446 830 l 1
220 614 m 0
 220 432 535 492 535 224 c 0
 535 74 400 -15 259 -15 c 0
 123 -15 30 74 30 152 c 0
 30 200 58 239 106 239 c 0
 140 239 176 214 176 168 c 0
 176 122 140 96 102 96 c 0
 78 96 60 109 54 118 c 1
 75 64 146 -1 259 -1 c 0
 365 -1 429 74 429 159 c 0
 429 366 122 281 122 533 c 0
 122 663 252 760 375 760 c 0
 483 760 583 687 583 604 c 0
 583 558 555 519 507 519 c 0
 473 519 437 543 437 590 c 0
 437 634 474 660 510 660 c 0
 532 660 550 646 555 637 c 1
 545 689 473 743 383 743 c 0
 277 743 220 687 220 614 c 0
EndSplineSet
EndChar

StartChar: numbersign
Encoding: 35 35 81
GlifName: numbersign
Width: 630
Flags: HMW
LayerCount: 2
Fore
SplineSet
66 260 m 1
 606 260 l 1
 606 246 l 1
 66 246 l 1
 66 260 l 1
116 519 m 1
 656 519 l 1
 656 505 l 1
 116 505 l 1
 116 519 l 1
544 754 m 1
 558 755 l 1
 383 -5 l 1
 369 -6 l 1
 544 754 l 1
344 755 m 1
 358 755 l 1
 183 -5 l 1
 169 -5 l 1
 344 755 l 1
EndSplineSet
EndChar

StartChar: slash
Encoding: 47 47 82
GlifName: slash
Width: 520
Flags: HMW
LayerCount: 2
Fore
SplineSet
603 780 m 1
 620 780 l 1
 -13 -150 l 1
 -30 -150 l 1
 603 780 l 1
EndSplineSet
EndChar

StartChar: percent
Encoding: 37 37 83
GlifName: percent
Width: 1000
Flags: HMW
LayerCount: 2
Fore
SplineSet
730 -10 m 0
 633 -10 570 37 570 140 c 0
 570 303 683 430 820 430 c 0
 917 430 980 383 980 280 c 0
 980 117 867 -10 730 -10 c 0
822 416 m 0
 754 416 684 228 684 106 c 0
 684 49 698 4 728 4 c 0
 796 4 865 189 865 311 c 0
 865 368 852 416 822 416 c 0
877 750 m 1
 895 750 l 1
 211 0 l 1
 193 0 l 1
 877 750 l 1
275 320 m 0
 178 320 115 367 115 470 c 0
 115 633 228 760 365 760 c 0
 462 760 525 713 525 610 c 0
 525 447 412 320 275 320 c 0
367 746 m 0
 299 746 229 558 229 436 c 0
 229 379 243 334 273 334 c 0
 341 334 410 523 410 645 c 0
 410 702 397 746 367 746 c 0
EndSplineSet
EndChar

StartChar: hyphen
Encoding: 45 45 85
GlifName: hyphen
Width: 360
Flags: HMW
LayerCount: 2
Fore
SplineSet
83 282 m 1
 323 282 l 1
 323 268 l 1
 83 268 l 1
 83 282 l 1
EndSplineSet
EndChar

StartChar: plus
Encoding: 43 43 87
GlifName: plus
Width: 530
Flags: HMW
LayerCount: 2
Fore
SplineSet
243 110 m 1
 338 520 l 1
 352 520 l 1
 257 110 l 1
 243 110 l 1
93 323 m 1
 503 323 l 1
 503 309 l 1
 93 309 l 1
 93 323 l 1
EndSplineSet
EndChar

StartChar: less
Encoding: 60 60 89
GlifName: less
Width: 560
Flags: HMW
LayerCount: 2
Fore
SplineSet
110 382 m 1
 110 396 l 1
 590 600 l 1
 590 586 l 1
 110 382 l 1
110 379 m 1
 110 393 l 1
 500 189 l 1
 500 175 l 1
 110 379 l 1
EndSplineSet
EndChar

StartChar: backslash
Encoding: 92 92 91
GlifName: backslash
Width: 520
Flags: HMW
LayerCount: 2
Fore
SplineSet
196 780 m 1
 410 -150 l 1
 394 -150 l 1
 180 780 l 1
 196 780 l 1
EndSplineSet
EndChar

StartChar: bracketleft
Encoding: 91 91 92
GlifName: bracketleft
Width: 349
Flags: HMW
LayerCount: 2
Fore
SplineSet
200 780 m 1
 454 780 l 1
 454 766 l 1
 306 766 l 1
 104 -136 l 1
 244 -136 l 1
 244 -150 l 1
 -10 -150 l 1
 200 780 l 1
EndSplineSet
EndChar

StartChar: braceleft
Encoding: 123 123 93
GlifName: braceleft
Width: 292
VWidth: 1155
Flags: HMW
LayerCount: 2
Fore
SplineSet
402 780 m 1
 402 765 l 1
 316 765 266 687 266 612 c 0
 266 556 276 531 276 455 c 0
 276 366 165 322 85 312 c 1
 85 323 l 1
 115 333 172 356 172 407 c 0
 172 462 152 484 152 571 c 0
 152 694 237 780 402 780 c 1
192 -150 m 1
 59 -150 5 -119 5 -34 c 0
 5 85 135 182 135 245 c 0
 135 286 115 297 85 307 c 1
 85 319 l 1
 165 309 212 285 212 216 c 0
 212 116 118 30 118 -46 c 0
 118 -92 130 -135 192 -135 c 1
 192 -150 l 1
EndSplineSet
EndChar

StartChar: bar
Encoding: 124 124 96
GlifName: bar
Width: 230
VWidth: 1155
Flags: HMW
LayerCount: 2
Fore
SplineSet
249 780 m 1
 262 780 l 1
 22 -250 l 1
 9 -250 l 1
 249 780 l 1
EndSplineSet
EndChar

StartChar: cent
Encoding: 162 162 98
GlifName: cent
Width: 482
VWidth: 1155
Flags: HMW
LayerCount: 2
Fore
SplineSet
348 555 m 1
 178 -85 l 1
 164 -85 l 1
 334 555 l 1
 348 555 l 1
EndSplineSet
Refer: 40 99 N 1 0 0 1 0 0 2
EndChar

StartChar: sterling
Encoding: 163 163 99
GlifName: sterling
Width: 636
VWidth: 1155
Flags: HMW
LayerCount: 2
Fore
SplineSet
612 181 m 1
 592 35 501 -30 401 -30 c 0
 264 -30 209 30 146 30 c 0
 104 30 65 10 46 -20 c 1
 38 -20 l 1
 70 62 147 121 237 121 c 0
 336 121 347 87 430 87 c 0
 499 87 578 99 598 181 c 1
 612 181 l 1
535 405 m 1
 535 391 l 1
 65 391 l 1
 65 405 l 1
 535 405 l 1
190 512 m 0
 190 662 327 760 508 760 c 0
 646 760 711 678 711 592 c 0
 711 545 677 518 641 518 c 0
 608 518 572 540 572 586 c 0
 572 627 606 651 641 651 c 0
 666 651 685 635 691 623 c 1
 687 676 629 745 524 745 c 0
 393 745 329 630 329 556 c 0
 329 489 350 449 350 366 c 0
 350 172 35 147 46 -20 c 1
 32 -20 l 1
 15 119 221 195 221 311 c 0
 221 367 190 427 190 512 c 0
EndSplineSet
EndChar

StartChar: section
Encoding: 167 167 101
GlifName: section
Width: 474
VWidth: 1155
Flags: HMW
LayerCount: 2
Fore
SplineSet
211 637 m 0
 211 530 464 555 464 403 c 0
 464 322 380 292 326 256 c 1
 316 260 l 1
 344 282 377 310 377 350 c 0
 377 457 142 419 142 591 c 0
 142 695 247 760 346 760 c 0
 444 760 502 694 502 628 c 0
 502 567 475 540 436 540 c 0
 402 540 376 562 376 602 c 0
 376 636 406 661 438 661 c 0
 462 661 479 647 485 642 c 1
 483 683 445 746 346 746 c 0
 273 746 211 702 211 637 c 0
408 168 m 0
 408 64 302 -10 183 -10 c 0
 95 -10 5 34 5 130 c 0
 5 173 37 213 81 213 c 0
 115 213 141 192 141 154 c 0
 141 118 111 92 75 92 c 0
 42 92 27 109 21 120 c 1
 25 42 102 4 183 4 c 0
 286 4 332 72 332 116 c 0
 332 227 69 198 69 341 c 0
 69 413 150 474 196 498 c 1
 209 498 l 1
 199 487 169 451 169 412 c 0
 169 289 408 342 408 168 c 0
EndSplineSet
EndChar

StartChar: brokenbar
Encoding: 166 166 102
GlifName: brokenbar
Width: 220
VWidth: 1155
Flags: HMW
LayerCount: 2
Fore
SplineSet
102 166 m 1
 115 166 l 1
 19 -250 l 1
 6 -250 l 1
 102 166 l 1
244 780 m 1
 257 780 l 1
 171 409 l 1
 158 409 l 1
 244 780 l 1
EndSplineSet
EndChar

StartChar: asciitilde
Encoding: 126 126 104
GlifName: asciitilde
Width: 688
VWidth: 1155
Flags: HMW
LayerCount: 2
Fore
SplineSet
276 431 m 0
 220 431 184 409 165 343 c 1
 150 343 l 1
 172 458 228 516 311 516 c 0
 421 516 431 422 522 422 c 0
 588 422 624 444 643 510 c 1
 658 510 l 1
 636 395 580 337 497 337 c 0
 378 337 358 431 276 431 c 0
EndSplineSet
EndChar

StartChar: copyright
Encoding: 169 169 105
GlifName: copyright
Width: 870
Flags: HMW
LayerCount: 2
Fore
SplineSet
85 305 m 0
 85 538 307 760 540 760 c 0
 733 760 875 638 875 445 c 0
 875 212 653 -10 420 -10 c 0
 227 -10 85 112 85 305 c 0
99 305 m 0
 99 120 235 4 420 4 c 0
 645 4 861 220 861 445 c 0
 861 630 725 746 540 746 c 0
 315 746 99 530 99 305 c 0
EndSplineSet
Refer: 14 67 N 0.6 0 0 0.6 228 150 2
EndChar

StartChar: registered
Encoding: 174 174 106
GlifName: registered
Width: 870
Flags: HMW
LayerCount: 2
Fore
SplineSet
85 305 m 0
 85 538 307 760 540 760 c 0
 733 760 875 638 875 445 c 0
 875 212 653 -10 420 -10 c 0
 227 -10 85 112 85 305 c 0
99 305 m 0
 99 120 235 4 420 4 c 0
 645 4 861 220 861 445 c 0
 861 630 725 746 540 746 c 0
 315 746 99 530 99 305 c 0
EndSplineSet
Refer: 29 82 N 0.6 0 0 0.6 252 148 2
EndChar

StartChar: logicalnot
Encoding: 172 172 107
GlifName: logicalnot
Width: 486
Flags: HMW
LayerCount: 2
Fore
SplineSet
499 601 m 1
 150 601 l 1
 150 615 l 1
 516 615 l 1
 471 413 l 1
 458 413 l 1
 499 601 l 1
EndSplineSet
EndChar

StartChar: guillemotleft
Encoding: 171 171 108
GlifName: guillemotleft
Width: 695
Flags: HMW
LayerCount: 2
Fore
SplineSet
501 388 m 1
 642 152 l 1
 635 145 l 1
 355 375 l 1
 355 400 l 1
 745 630 l 1
 752 623 l 1
 501 388 l 1
221 388 m 1
 362 152 l 1
 355 145 l 1
 75 375 l 1
 75 400 l 1
 465 630 l 1
 472 623 l 1
 221 388 l 1
EndSplineSet
EndChar

StartChar: mu
Encoding: 181 181 111
GlifName: mu
Width: 632
VWidth: 1155
Flags: HMW
LayerCount: 2
Fore
SplineSet
25 -91 m 2
 4 -181 15 -245 100 -250 c 1
 111 -248 l 1
 84 -232 71 -209 71 -181 c 0
 71 -147 99 -124 132 -124 c 0
 165 -124 193 -152 193 -190 c 0
 193 -229 171 -260 98 -260 c 0
 8 -260 -11 -186 11 -91 c 2
 106 321 l 1
 120 321 l 1
 25 -91 l 2
EndSplineSet
Refer: 58 117 N 1 0 0 1 0 0 2
EndChar

StartChar: asciicircum
Encoding: 94 94 113
GlifName: asciicircum
Width: 545
Flags: HMW
LayerCount: 2
Fore
SplineSet
408 723 m 1
 217 623 l 1
 210 630 l 1
 380 770 l 1
 445 770 l 1
 555 630 l 1
 547 623 l 1
 408 723 l 1
EndSplineSet
EndChar

StartChar: degree
Encoding: 176 176 115
GlifName: degree
Width: 320
Flags: HMW
LayerCount: 2
Fore
SplineSet
194 680 m 0
 194 746 248 800 314 800 c 0
 380 800 434 746 434 680 c 0
 434 614 380 560 314 560 c 0
 248 560 194 614 194 680 c 0
237 680 m 0
 237 636 270 603 314 603 c 0
 358 603 391 636 391 680 c 0
 391 724 358 757 314 757 c 0
 270 757 237 724 237 680 c 0
EndSplineSet
EndChar

StartChar: onequarter
Encoding: 188 188 119
GlifName: onequarter
Width: 641
Flags: HMW
LayerCount: 2
Fore
SplineSet
624 650 m 1
 636 650 l 1
 -5 -100 l 1
 -17 -100 l 1
 624 650 l 1
EndSplineSet
Refer: 6 52 N 0.6 0 0 0.6 240 -103 2
Refer: 3 49 N 0.6 0 0 0.6 102 356 2
EndChar

StartChar: onehalf
Encoding: 189 189 120
GlifName: onehalf
Width: 670
Flags: HMW
LayerCount: 2
Fore
SplineSet
624 650 m 1
 636 650 l 1
 -5 -100 l 1
 -17 -100 l 1
 624 650 l 1
EndSplineSet
Refer: 4 50 N 0.6 0 0 0.6 341 -101 2
Refer: 3 49 N 0.6 0 0 0.6 102 356 2
EndChar

StartChar: threequarters
Encoding: 190 190 121
GlifName: threequarters
Width: 701
Flags: HMW
LayerCount: 2
Fore
SplineSet
684 650 m 1
 696 650 l 1
 55 -100 l 1
 43 -100 l 1
 684 650 l 1
EndSplineSet
Refer: 5 51 N 0.6 0 0 0.6 85 354 2
Refer: 6 52 N 0.6 0 0 0.6 300 -103 2
EndChar

StartChar: grave
Encoding: 96 96 123
GlifName: grave
Width: 399
Flags: HMW
LayerCount: 2
Fore
SplineSet
236 712 m 2
 211 711 189 730 189 755 c 0
 189 780 214 806 246 796 c 2
 479 729 l 1
 475 715 l 1
 236 712 l 2
EndSplineSet
EndChar

StartChar: acute
Encoding: 180 180 124
GlifName: acute
Width: 399
Flags: HMW
LayerCount: 2
Fore
SplineSet
469 710 m 2
 230 713 l 1
 226 727 l 1
 459 794 l 2
 491 804 516 778 516 753 c 0
 516 728 494 709 469 710 c 2
EndSplineSet
EndChar

StartChar: multiply
Encoding: 215 215 127
GlifName: multiply
Width: 530
Flags: HMW
LayerCount: 2
Fore
SplineSet
405 165 m 1
 180 455 l 1
 190 465 l 1
 415 175 l 1
 405 165 l 1
114 176 m 1
 469 466 l 1
 479 456 l 1
 124 166 l 1
 114 176 l 1
EndSplineSet
EndChar

StartChar: cedilla
Encoding: 184 184 128
GlifName: cedilla
Width: 550
Flags: HMW
LayerCount: 2
Fore
SplineSet
237 -79 m 1
 357 41 l 1
 376 41 l 1
 256 -79 l 1
 237 -79 l 1
237 -79 m 1
 284 -39 l 1
 366 -39 422 -58 422 -110 c 0
 422 -174 332 -220 225 -220 c 1
 225 -206 l 1
 284 -206 331 -178 331 -130 c 0
 331 -89 298 -79 237 -79 c 1
EndSplineSet
EndChar

StartChar: ring
Encoding: 730 730 271
GlifName: ring
Width: 320
VWidth: 0
Flags: HMW
LayerCount: 2
Fore
SplineSet
185 680 m 0
 185 731 225 770 280 770 c 0
 335 770 375 731 375 680 c 0
 375 629 335 590 280 590 c 0
 225 590 185 629 185 680 c 0
229 654 m 0
 229 629 240 604 273 604 c 0
 308 604 331 666 331 706 c 0
 331 731 320 756 287 756 c 0
 252 756 229 694 229 654 c 0
EndSplineSet
EndChar

StartChar: tilde
Encoding: 732 732 272
GlifName: tilde
Width: 448
VWidth: 0
Flags: HMW
LayerCount: 2
Fore
SplineSet
236 663 m 0
 202 663 179 648 159 600 c 1
 145 600 l 1
 165 685 216 733 271 733 c 0
 341 733 382 654 432 654 c 0
 466 654 489 669 509 717 c 1
 523 717 l 1
 503 622 462 584 407 584 c 0
 330 584 293 663 236 663 c 0
EndSplineSet
EndChar

StartChar: AE
Encoding: 198 198 274
GlifName: A_E_
Width: 1012
Flags: HMW
LayerCount: 2
Fore
SplineSet
693 750 m 1
 1106 750 l 1
 1058 545 l 1
 1044 545 l 1
 1063 652 1034 736 917 736 c 2
 693 736 l 1
 693 750 l 1
738 381 m 2
 669 381 l 1
 669 395 l 1
 738 395 l 2
 795 395 848 432 869 499 c 1
 883 499 l 1
 831 272 l 1
 817 272 l 1
 826 339 795 381 738 381 c 2
942 0 m 1
 400 0 l 1
 400 14 l 1
 743 14 l 2
 880 14 945 98 980 225 c 1
 994 225 l 1
 942 0 l 1
659 750 m 1
 778 750 l 1
 604 0 l 1
 485 0 l 1
 659 750 l 1
259 252 m 1
 555 252 l 1
 555 238 l 1
 259 238 l 1
 259 252 l 1
649 750 m 1
 666 750 l 1
 75 0 l 1
 55 0 l 1
 649 750 l 1
-25 14 m 1
 195 14 l 1
 195 0 l 1
 -25 0 l 1
 -25 14 l 1
EndSplineSet
EndChar

StartChar: ae
Encoding: 230 230 277
GlifName: ae
Width: 793
VWidth: 1155
Flags: HMW
LayerCount: 2
Fore
SplineSet
274 258 m 2
 352 258 l 1
 352 244 l 1
 286 244 l 2
 206 244 138 176 138 84 c 0
 138 29 161 4 192 4 c 0
 247 4 300 83 322 181 c 2
 350 305 l 2
 364 369 365 454 287 454 c 0
 244 454 189 438 169 416 c 1
 209 426 244 406 244 368 c 0
 244 326 208 303 175 303 c 0
 137 303 113 324 113 362 c 0
 113 424 202 468 297 468 c 0
 427 468 454 396 438 305 c 1
 397 181 l 1
 374 57 289 -10 174 -10 c 0
 91 -10 18 19 18 93 c 0
 18 187 112 258 274 258 c 2
677 375 m 0
 677 420 667 458 634 458 c 0
 555 458 453 300 453 136 c 0
 453 64 477 11 534 11 c 0
 614 11 687 70 729 143 c 1
 742 143 l 1
 701 66 619 -10 502 -10 c 0
 421 -10 351 40 351 160 c 1
 371 155 l 1
 373 345 502 470 638 470 c 0
 720 470 789 444 789 370 c 0
 789 216 539 214 444 214 c 1
 444 227 l 1
 537 227 677 242 677 375 c 0
EndSplineSet
EndChar

StartChar: perthousand
Encoding: 8240 8240 285
GlifName: perthousand
Width: 1480
Flags: HMW
LayerCount: 2
Fore
SplineSet
1210 -10 m 0
 1113 -10 1050 37 1050 140 c 0
 1050 303 1163 430 1300 430 c 0
 1397 430 1460 383 1460 280 c 0
 1460 117 1347 -10 1210 -10 c 0
1302 416 m 0
 1234 416 1164 228 1164 106 c 0
 1164 49 1178 4 1208 4 c 0
 1276 4 1345 189 1345 311 c 0
 1345 368 1332 416 1302 416 c 0
730 -10 m 0
 633 -10 570 37 570 140 c 0
 570 303 683 430 820 430 c 0
 917 430 980 383 980 280 c 0
 980 117 867 -10 730 -10 c 0
822 416 m 0
 754 416 684 228 684 106 c 0
 684 49 698 4 728 4 c 0
 796 4 865 189 865 311 c 0
 865 368 852 416 822 416 c 0
877 750 m 1
 895 750 l 1
 211 0 l 1
 193 0 l 1
 877 750 l 1
275 320 m 0
 178 320 115 367 115 470 c 0
 115 633 228 760 365 760 c 0
 462 760 525 713 525 610 c 0
 525 447 412 320 275 320 c 0
367 746 m 0
 299 746 229 558 229 436 c 0
 229 379 243 334 273 334 c 0
 341 334 410 523 410 645 c 0
 410 702 397 746 367 746 c 0
EndSplineSet
EndChar

StartChar: uni2031
Encoding: 8241 8241 286
GlifName: uni2031
Width: 1968
Flags: HMW
LayerCount: 2
Fore
SplineSet
1703 -10 m 0
 1606 -10 1543 37 1543 140 c 0
 1543 303 1656 430 1793 430 c 0
 1890 430 1953 383 1953 280 c 0
 1953 117 1840 -10 1703 -10 c 0
1795 416 m 0
 1727 416 1657 228 1657 106 c 0
 1657 49 1671 4 1701 4 c 0
 1769 4 1838 189 1838 311 c 0
 1838 368 1825 416 1795 416 c 0
1210 -10 m 0
 1113 -10 1050 37 1050 140 c 0
 1050 303 1163 430 1300 430 c 0
 1397 430 1460 383 1460 280 c 0
 1460 117 1347 -10 1210 -10 c 0
1302 416 m 0
 1234 416 1164 228 1164 106 c 0
 1164 49 1178 4 1208 4 c 0
 1276 4 1345 189 1345 311 c 0
 1345 368 1332 416 1302 416 c 0
730 -10 m 0
 633 -10 570 37 570 140 c 0
 570 303 683 430 820 430 c 0
 917 430 980 383 980 280 c 0
 980 117 867 -10 730 -10 c 0
822 416 m 0
 754 416 684 228 684 106 c 0
 684 49 698 4 728 4 c 0
 796 4 865 189 865 311 c 0
 865 368 852 416 822 416 c 0
877 750 m 1
 895 750 l 1
 211 0 l 1
 193 0 l 1
 877 750 l 1
275 320 m 0
 178 320 115 367 115 470 c 0
 115 633 228 760 365 760 c 0
 462 760 525 713 525 610 c 0
 525 447 412 320 275 320 c 0
367 746 m 0
 299 746 229 558 229 436 c 0
 229 379 243 334 273 334 c 0
 341 334 410 523 410 645 c 0
 410 702 397 746 367 746 c 0
EndSplineSet
EndChar

StartChar: uniFB00
Encoding: 64256 64256 290
GlifName: uniF_B_00
Width: 659
VWidth: 1155
Flags: HMW
LayerCount: 2
Fore
SplineSet
59 460 m 1
 689 460 l 1
 689 446 l 1
 59 446 l 1
 59 460 l 1
788 696 m 1
 780 716 754 746 699 746 c 0
 629 746 581 662 559 540 c 2
 470 38 l 2
 445 -102 352 -210 214 -210 c 0
 119 -210 80 -151 80 -105 c 0
 80 -60 109 -35 145 -35 c 0
 176 -35 211 -53 211 -97 c 0
 211 -141 177 -162 143 -162 c 0
 127 -162 114 -154 111 -146 c 1
 119 -166 145 -196 209 -196 c 0
 287 -196 336 -112 357 10 c 2
 444 512 l 2
 468 652 564 760 694 760 c 0
 781 760 820 701 820 655 c 0
 820 610 791 585 755 585 c 0
 724 585 689 603 689 647 c 0
 689 691 722 712 756 712 c 0
 772 712 784 703 788 696 c 1
502 646 m 1
 494 666 468 696 404 696 c 0
 326 696 279 618 257 496 c 2
 167 -12 l 2
 142 -152 49 -260 -81 -260 c 0
 -168 -260 -207 -201 -207 -155 c 0
 -207 -110 -178 -85 -142 -85 c 0
 -111 -85 -76 -103 -76 -147 c 0
 -76 -191 -109 -212 -143 -212 c 0
 -159 -212 -173 -204 -176 -196 c 1
 -168 -216 -140 -246 -85 -246 c 0
 -15 -246 33 -162 54 -40 c 2
 141 462 l 2
 165 602 261 710 399 710 c 0
 494 710 533 651 533 605 c 0
 533 560 504 535 468 535 c 0
 437 535 402 553 402 597 c 0
 402 641 436 662 470 662 c 0
 486 662 498 653 502 646 c 1
EndSplineSet
Ligature2: "'liga' Standard Ligatures lookup 0-1" f f
LCarets2: 1 0
EndChar

StartChar: uniFB01
Encoding: 64257 64257 291
GlifName: uniF_B_01
Width: 631
VWidth: 1155
Flags: HMW
LayerCount: 2
Fore
SplineSet
611 163 m 1
 573 63 510 -10 423 -10 c 0
 370 -10 343 13 343 67 c 0
 343 72 344 83 345 89 c 2
 427 446 l 1
 59 446 l 1
 59 460 l 1
 541 460 l 1
 445 53 l 2
 444 47 443 40 443 35 c 0
 443 24 448 16 461 16 c 0
 515 16 570 90 598 167 c 1
 611 163 l 1
539 696 m 1
 530 717 504 746 431 746 c 0
 342 746 289 663 267 540 c 2
 167 -12 l 2
 142 -151 49 -260 -81 -260 c 0
 -168 -260 -207 -201 -207 -155 c 0
 -207 -110 -178 -85 -142 -85 c 0
 -111 -85 -76 -103 -76 -147 c 0
 -76 -191 -109 -212 -143 -212 c 0
 -159 -212 -173 -204 -176 -196 c 1
 -168 -216 -140 -246 -85 -246 c 0
 -15 -246 33 -162 54 -40 c 2
 152 512 l 2
 176 652 276 760 426 760 c 0
 532 760 570 702 570 655 c 0
 570 610 541 585 505 585 c 0
 474 585 439 603 439 647 c 0
 439 691 472 712 506 712 c 0
 521 712 535 703 539 696 c 1
EndSplineSet
Ligature2: "'liga' Standard Ligatures lookup 0-1" f i
LCarets2: 1 0
EndChar

StartChar: uniFB02
Encoding: 64258 64258 292
GlifName: uniF_B_02
Width: 663
VWidth: 1155
Flags: HMW
LayerCount: 2
Fore
SplineSet
643 163 m 1
 605 63 542 -10 455 -10 c 0
 402 -10 375 13 375 67 c 0
 375 72 376 83 377 89 c 2
 524 730 l 1
 643 770 l 1
 476 53 l 2
 475 47 474 40 474 35 c 0
 474 24 479 16 492 16 c 0
 546 16 603 93 630 167 c 1
 643 163 l 1
59 460 m 1
 397 460 l 1
 397 446 l 1
 59 446 l 1
 59 460 l 1
558 655 m 0
 558 610 529 585 493 585 c 0
 462 585 427 603 427 647 c 0
 427 691 460 712 494 712 c 0
 509 712 522 703 526 696 c 1
 518 716 494 746 435 746 c 0
 356 746 289 662 267 540 c 2
 167 -12 l 2
 142 -151 49 -260 -81 -260 c 0
 -168 -260 -207 -201 -207 -155 c 0
 -207 -110 -178 -85 -142 -85 c 0
 -111 -85 -76 -103 -76 -147 c 0
 -76 -191 -109 -212 -143 -212 c 0
 -159 -212 -173 -204 -176 -196 c 1
 -168 -216 -140 -246 -85 -246 c 0
 -15 -246 33 -162 54 -40 c 2
 152 512 l 2
 176 653 291 760 432 760 c 0
 524 760 558 702 558 655 c 0
EndSplineSet
Ligature2: "'liga' Standard Ligatures lookup 0-1" f l
LCarets2: 1 0
EndChar

StartChar: uniFB03
Encoding: 64259 64259 293
GlifName: uniF_B_03
Width: 923
VWidth: 1155
Flags: HMW
LayerCount: 2
Fore
SplineSet
903 163 m 1
 865 63 802 -10 715 -10 c 0
 662 -10 635 13 635 67 c 0
 635 72 636 83 637 89 c 2
 719 446 l 1
 59 446 l 1
 59 460 l 1
 833 460 l 1
 737 53 l 2
 736 47 735 40 735 35 c 0
 735 24 740 16 753 16 c 0
 807 16 862 90 890 167 c 1
 903 163 l 1
862 655 m 0
 862 610 833 585 797 585 c 0
 766 585 731 603 731 647 c 0
 731 691 764 712 798 712 c 0
 813 712 827 703 831 696 c 1
 822 717 796 746 723 746 c 0
 634 746 581 663 559 540 c 2
 470 38 l 2
 446 -101 352 -210 214 -210 c 0
 119 -210 80 -151 80 -105 c 0
 80 -60 109 -35 145 -35 c 0
 176 -35 211 -53 211 -97 c 0
 211 -141 178 -162 144 -162 c 0
 128 -162 114 -154 111 -146 c 1
 119 -166 145 -196 209 -196 c 0
 287 -196 336 -112 357 10 c 2
 444 512 l 2
 468 652 568 760 718 760 c 0
 823 760 862 703 862 655 c 0
502 646 m 1
 494 666 468 696 404 696 c 0
 326 696 279 618 257 496 c 2
 167 -12 l 2
 142 -152 49 -260 -81 -260 c 0
 -168 -260 -207 -201 -207 -155 c 0
 -207 -110 -178 -85 -142 -85 c 0
 -111 -85 -76 -103 -76 -147 c 0
 -76 -191 -109 -212 -143 -212 c 0
 -159 -212 -173 -204 -176 -196 c 1
 -168 -216 -140 -246 -85 -246 c 0
 -15 -246 33 -162 54 -40 c 2
 141 462 l 2
 165 602 261 710 399 710 c 0
 494 710 533 651 533 605 c 0
 533 560 504 535 468 535 c 0
 437 535 402 553 402 597 c 0
 402 641 436 662 470 662 c 0
 486 662 498 653 502 646 c 1
EndSplineSet
Ligature2: "'liga' Standard Ligatures lookup 0-1" f f i
LCarets2: 2 0 0
EndChar

StartChar: uniFB04
Encoding: 64260 64260 294
GlifName: uniF_B_04
Width: 955
VWidth: 1155
Flags: HMW
LayerCount: 2
Fore
SplineSet
935 163 m 1
 897 63 834 -10 747 -10 c 0
 694 -10 667 13 667 67 c 0
 667 72 668 83 669 89 c 2
 816 730 l 1
 935 770 l 1
 768 53 l 2
 767 47 766 40 766 35 c 0
 766 24 771 16 784 16 c 0
 838 16 895 93 922 167 c 1
 935 163 l 1
59 460 m 1
 689 460 l 1
 689 446 l 1
 59 446 l 1
 59 460 l 1
818 696 m 1
 810 716 786 746 727 746 c 0
 648 746 581 662 559 540 c 2
 470 38 l 2
 445 -102 353 -210 215 -210 c 0
 120 -210 82 -151 82 -105 c 0
 82 -60 111 -35 147 -35 c 0
 178 -35 213 -53 213 -97 c 0
 213 -141 179 -162 145 -162 c 0
 129 -162 116 -154 113 -146 c 1
 121 -166 147 -196 211 -196 c 0
 289 -196 337 -112 358 10 c 2
 444 512 l 2
 468 653 583 760 724 760 c 0
 819 760 850 701 850 655 c 0
 850 610 821 585 785 585 c 0
 754 585 719 603 719 647 c 0
 719 691 752 712 786 712 c 0
 802 712 814 703 818 696 c 1
502 646 m 1
 494 666 468 696 404 696 c 0
 326 696 279 618 257 496 c 2
 167 -12 l 2
 142 -152 49 -260 -81 -260 c 0
 -168 -260 -207 -201 -207 -155 c 0
 -207 -110 -178 -85 -142 -85 c 0
 -111 -85 -76 -103 -76 -147 c 0
 -76 -191 -109 -212 -143 -212 c 0
 -159 -212 -173 -204 -176 -196 c 1
 -168 -216 -140 -246 -85 -246 c 0
 -15 -246 33 -162 54 -40 c 2
 141 462 l 2
 165 602 261 710 399 710 c 0
 494 710 533 651 533 605 c 0
 533 560 504 535 468 535 c 0
 437 535 402 553 402 597 c 0
 402 641 436 662 470 662 c 0
 485 662 498 653 502 646 c 1
EndSplineSet
Ligature2: "'liga' Standard Ligatures lookup 0-1" f f l
LCarets2: 2 0 0
EndChar

StartChar: ogonek
Encoding: 731 731 295
GlifName: ogonek
Width: 550
Flags: HMW
LayerCount: 2
Fore
SplineSet
332 -113 m 1
 317 -141 284 -190 207 -190 c 0
 152 -190 100 -172 100 -114 c 0
 100 -34 219 21 288 43 c 1
 291 35 l 1
 260 17 210 -28 210 -102 c 0
 210 -142 227 -164 250 -164 c 0
 285 -164 309 -131 321 -108 c 1
 332 -113 l 1
EndSplineSet
EndChar

StartChar: dotlessi
Encoding: 305 305 296
GlifName: dotlessi
Width: 337
VWidth: 1155
Flags: HMW
LayerCount: 2
Fore
SplineSet
318 163 m 1
 280 63 217 -10 130 -10 c 0
 77 -10 50 13 50 67 c 0
 50 72 51 83 52 89 c 2
 134 446 l 1
 64 446 l 1
 64 460 l 1
 248 460 l 1
 151 53 l 2
 150 47 149 40 149 35 c 0
 149 24 154 16 167 16 c 0
 221 16 277 90 305 167 c 1
 318 163 l 1
EndSplineSet
EndChar

StartChar: uni0237
Encoding: 567 567 297
GlifName: uni0237
Width: 276
VWidth: 1155
Flags: HMW
LayerCount: 2
Fore
SplineSet
-158 -187 m 1
 -148 -217 -115 -245 -75 -245 c 0
 17 -245 17 -100 45 20 c 2
 144 446 l 1
 53 446 l 1
 53 460 l 1
 254 460 l 1
 156 -12 l 2
 130 -137 60 -260 -70 -260 c 0
 -145 -260 -187 -195 -187 -152 c 0
 -187 -107 -151 -77 -115 -77 c 0
 -84 -77 -54 -99 -54 -138 c 0
 -54 -179 -88 -203 -125 -203 c 0
 -138 -203 -151 -196 -158 -187 c 1
EndSplineSet
EndChar

StartChar: kgreenlandic
Encoding: 312 312 306
GlifName: kgreenlandic
Width: 576
VWidth: 1155
Flags: HMW
LayerCount: 2
Fore
SplineSet
556 163 m 1
 518 63 457 -10 372 -10 c 0
 319 -10 291 13 291 67 c 0
 291 72 292 83 293 89 c 2
 304 140 l 2
 317 198 350 275 285 275 c 0
 223 275 208 225 199 190 c 1
 189 190 l 1
 210 279 256 290 303 290 c 0
 372 290 436 251 406 121 c 2
 388 39 l 2
 388 37 386 32 386 30 c 0
 386 19 393 14 406 14 c 0
 459 14 516 91 543 167 c 1
 556 163 l 1
186 323 m 1
 202 315 l 1
 205 277 221 255 254 255 c 0
 296 255 314 297 340 361 c 0
 368 429 404 470 456 470 c 0
 505 470 546 437 546 381 c 0
 546 334 517 313 486 313 c 0
 455 313 428 336 428 371 c 0
 428 403 452 426 484 426 c 0
 504 426 517 415 522 407 c 1
 516 438 490 456 458 456 c 0
 413 456 381 423 354 357 c 0
 327 289 304 242 254 242 c 0
 214 242 186 271 186 323 c 1
148 446 m 1
 62 446 l 1
 62 460 l 1
 262 460 l 1
 155 0 l 1
 45 0 l 1
 148 446 l 1
EndSplineSet
EndChar

StartChar: breve
Encoding: 728 728 307
GlifName: breve
Width: 288
VWidth: 1155
Flags: HMW
LayerCount: 2
Fore
SplineSet
174 759 m 1
 165 712 200 689 254 689 c 0
 308 689 363 710 374 759 c 1
 388 759 l 1
 378 698 340 618 244 618 c 0
 158 618 150 698 160 759 c 1
 174 759 l 1
EndSplineSet
EndChar

StartChar: thorn
Encoding: 254 254 318
GlifName: thorn
Width: 588
VWidth: 1155
Flags: HMW
LayerCount: 2
Fore
SplineSet
199 154 m 0
 199 85 226 35 267 35 c 0
 351 35 436 198 436 332 c 0
 436 402 413 448 368 448 c 0
 268 448 199 261 199 154 c 0
188 154 m 0
 188 262 259 478 400 478 c 0
 469 478 560 438 560 308 c 0
 560 108 403 -1 303 -1 c 0
 227 -1 188 62 188 154 c 0
-79 -236 m 1
 166 -236 l 1
 166 -250 l 1
 -79 -250 l 1
 -79 -236 l 1
211 736 m 1
 143 736 l 1
 143 750 l 1
 325 750 l 1
 221 293 l 1
 198 217 l 1
 191 158 l 1
 96 -250 l 1
 -14 -250 l 1
 211 736 l 1
EndSplineSet
EndChar

StartChar: Thorn
Encoding: 222 222 319
GlifName: T_horn
Width: 631
Flags: HMW
LayerCount: 2
Fore
SplineSet
315 180 m 2
 205 180 l 1
 205 194 l 1
 305 194 l 2
 437 194 509 339 509 448 c 0
 509 507 491 586 405 586 c 2
 256 586 l 1
 256 600 l 1
 415 600 l 2
 546 600 643 552 643 432 c 0
 643 282 516 180 315 180 c 2
-29 14 m 1
 270 14 l 1
 270 0 l 1
 -29 0 l 1
 -29 14 l 1
143 750 m 1
 443 750 l 1
 443 736 l 1
 143 736 l 1
 143 750 l 1
232 750 m 1
 351 750 l 1
 178 0 l 1
 59 0 l 1
 232 750 l 1
EndSplineSet
EndChar

StartChar: Lslash
Encoding: 321 321 324
GlifName: L_slash
Width: 580
Flags: HMW
LayerCount: 2
Fore
SplineSet
37 360 m 1
 402 580 l 1
 402 563 l 1
 37 343 l 1
 37 360 l 1
EndSplineSet
Refer: 23 76 N 1 0 0 1 0 0 2
EndChar

StartChar: lslash
Encoding: 322 322 325
GlifName: lslash
Width: 333
VWidth: 1155
Flags: HMW
LayerCount: 2
Fore
SplineSet
36 392 m 1
 345 580 l 1
 345 562 l 1
 36 374 l 1
 36 392 l 1
EndSplineSet
Refer: 49 108 N 1 0 0 1 0 0 2
EndChar

StartChar: eth
Encoding: 240 240 329
GlifName: eth
Width: 580
VWidth: 1155
Flags: HMW
LayerCount: 2
Fore
SplineSet
220 630 m 1
 648 630 l 1
 648 616 l 1
 220 616 l 1
 220 630 l 1
577 396 m 0
 577 186 419 -10 246 -10 c 0
 119 -10 40 44 40 174 c 0
 40 380 212 490 333 490 c 0
 446 490 454 419 452 302 c 1
 440 346 l 1
 440 410 416 469 359 469 c 0
 256 469 162 298 162 138 c 0
 162 66 175 4 244 4 c 0
 343 4 440 222 440 346 c 1
 448 356 l 1
 453 546 439 748 237 748 c 1
 237 760 l 1
 470 760 577 595 577 396 c 0
EndSplineSet
EndChar

StartChar: OE
Encoding: 338 338 330
GlifName: O_E_
Width: 975
Flags: HMW
LayerCount: 2
Fore
SplineSet
499 750 m 1
 499 735 l 1
 319 735 201 419 201 187 c 0
 201 87 232 15 330 15 c 1
 330 0 l 1
 177 0 69 84 69 253 c 0
 69 534 278 750 499 750 c 1
EndSplineSet
Refer: 16 69 N 1 0 0 1 376 0 2
EndChar

StartChar: germandbls
Encoding: 223 223 332
GlifName: germandbls
Width: 715
VWidth: 1155
Flags: HMW
LayerCount: 2
Fore
SplineSet
685 200 m 0
 685 50 557 -10 456 -10 c 0
 363 -10 316 50 316 124 c 0
 316 182 350 217 391 217 c 0
 427 217 455 193 455 153 c 0
 455 117 420 90 387 90 c 0
 363 90 343 101 332 117 c 1
 332 57 372 6 446 6 c 0
 535 6 562 108 562 202 c 0
 562 296 524 399 417 399 c 1
 417 409 l 1
 598 409 685 330 685 200 c 0
-25 14 m 1
 269 14 l 1
 269 0 l 1
 -25 0 l 1
 -25 14 l 1
417 402 m 1
 417 412 l 1
 546 412 622 523 622 607 c 0
 622 679 597 748 505 748 c 0
 361 748 320 616 289 481 c 2
 179 0 l 1
 65 0 l 1
 176 491 l 2
 214 661 324 760 507 760 c 0
 640 760 746 708 746 601 c 0
 746 487 618 402 417 402 c 1
EndSplineSet
EndChar

StartChar: uni0212
Encoding: 530 530 333
GlifName: uni0212
Width: 735
VWidth: 0
Flags: HMW
LayerCount: 2
Fore
SplineSet
587 820 m 1
 596 867 561 890 507 890 c 0
 453 890 398 869 387 820 c 1
 373 820 l 1
 383 881 421 961 517 961 c 0
 611 961 611 881 601 820 c 1
 587 820 l 1
EndSplineSet
Refer: 29 82 N 1 0 0 1 0 0 3
EndChar

StartChar: uni0213
Encoding: 531 531 334
GlifName: uni0213
Width: 433
VWidth: 0
Flags: HMW
LayerCount: 2
Fore
SplineSet
396 532 m 1
 405 579 368 602 314 602 c 0
 260 602 205 581 194 532 c 1
 180 532 l 1
 190 593 228 673 324 673 c 0
 418 673 418 593 408 532 c 1
 396 532 l 1
EndSplineSet
Refer: 55 114 N 1 0 0 1 0 0 3
EndChar

StartChar: circumflex
Encoding: 710 710 335
GlifName: circumflex
Width: 405
Flags: HMW
LayerCount: 2
Fore
SplineSet
332 715 m 1
 167 643 l 1
 160 650 l 1
 298 770 l 1
 371 770 l 1
 465 650 l 1
 458 643 l 1
 332 715 l 1
EndSplineSet
EndChar

StartChar: caron
Encoding: 711 711 336
GlifName: caron
Width: 405
Flags: HMW
LayerCount: 2
Fore
SplineSet
313 719 m 1
 478 791 l 1
 485 784 l 1
 349 664 l 1
 276 664 l 1
 180 784 l 1
 187 791 l 1
 313 719 l 1
EndSplineSet
EndChar

StartChar: pi
Encoding: 960 960 337
GlifName: pi
Width: 605
VWidth: 1155
Flags: HMW
LayerCount: 2
Fore
SplineSet
84 -10 m 0
 41 -10 19 15 19 44 c 0
 19 126 143 96 196 283 c 2
 243 450 l 1
 299 450 l 1
 244 243 l 2
 205 95 166 -10 84 -10 c 0
550 103 m 1
 525 33 481 -10 412 -10 c 0
 363 -10 317 27 333 92 c 2
 416 420 l 1
 530 420 l 1
 446 105 l 2
 436 68 452 58 476 58 c 0
 501 58 521 75 540 109 c 1
 550 103 l 1
620 460 m 1
 585 350 l 1
 95 350 l 1
 77 275 l 1
 63 275 l 1
 107 460 l 1
 620 460 l 1
EndSplineSet
EndChar

StartChar: uni1E9E
Encoding: 7838 7838 338
GlifName: uni1E_9E_
Width: 823
VWidth: 1155
Flags: HMW
LayerCount: 2
Fore
SplineSet
311 140 m 0
 311 186 340 217 381 217 c 0
 417 217 445 193 445 153 c 0
 445 117 411 90 378 90 c 0
 355 90 337 103 331 111 c 1
 337 63 382 9 478 9 c 0
 607 9 666 124 666 234 c 0
 666 312 640 399 525 399 c 1
 525 409 l 1
 722 409 793 346 793 232 c 0
 793 74 653 -10 496 -10 c 0
 358 -10 311 64 311 140 c 0
-25 14 m 1
 277 14 l 1
 277 0 l 1
 -25 0 l 1
 -25 14 l 1
525 402 m 1
 525 412 l 1
 694 412 726 555 726 623 c 0
 726 679 703 748 575 748 c 0
 403 748 325 598 289 441 c 2
 187 0 l 1
 65 0 l 1
 168 451 l 2
 212 644 364 760 577 760 c 0
 764 760 854 700 854 609 c 0
 854 519 766 402 525 402 c 1
EndSplineSet
EndChar

StartChar: uni203D
Encoding: 8253 8253 339
GlifName: uni203D_
Width: 576
Flags: HMW
LayerCount: 2
Fore
SplineSet
426 535 m 0
 407 429 320 372 280 222 c 1
 266 222 l 1
 296 372 296 427 296 503 c 0
 296 563 313 608 366 608 c 0
 405 608 434 578 426 535 c 0
504 610 m 0
 504 684 469 745 378 745 c 0
 267 745 183 672 170 625 c 1
 177 631 192 640 210 640 c 0
 241 640 272 618 272 578 c 0
 272 532 234 513 205 513 c 0
 171 513 142 538 142 583 c 0
 142 669 252 760 388 760 c 0
 507 760 621 712 621 590 c 0
 621 446 459 335 303 335 c 1
 303 345 l 1
 411 376 504 487 504 610 c 0
EndSplineSet
Refer: 1 46 N 1 0 0 1 149 0 2
EndChar

StartChar: R.alt
Encoding: 65536 -1 340
GlifName: R_.alt
Width: 714
Flags: HMW
LayerCount: 2
Fore
SplineSet
638 0 m 1
 622 0 602 0 566 0 c 0
 323 0 575 378 339 378 c 2
 236 378 l 1
 236 385 l 1
 369 385 l 2
 706 385 496 14 613 14 c 0
 624 14 638 14 638 14 c 1
 638 0 l 1
234 750 m 1
 353 750 l 1
 178 0 l 1
 59 0 l 1
 234 750 l 1
-39 14 m 1
 288 14 l 1
 288 0 l 1
 -39 0 l 1
 -39 14 l 1
375 383 m 2
 236 383 l 1
 236 392 l 1
 365 392 l 2
 503 392 565 521 565 616 c 0
 565 665 553 736 461 736 c 2
 126 736 l 1
 126 750 l 1
 475 750 l 2
 606 750 696 710 696 600 c 0
 696 460 576 383 375 383 c 2
EndSplineSet
EndChar

StartChar: J.alt
Encoding: 65537 -1 341
GlifName: J_.alt
Width: 572
Flags: HMW
LayerCount: 2
Fore
SplineSet
348 750 m 1
 688 750 l 1
 688 736 l 1
 348 736 l 1
 348 750 l 1
468 750 m 1
 588 750 l 1
 478 280 l 2
 442 128 324 -10 163 -10 c 0
 56 -10 5 65 5 145 c 0
 5 221 46 260 94 260 c 0
 137 260 172 236 172 184 c 0
 172 143 139 109 89 109 c 0
 57 109 30 131 21 151 c 1
 20 80 62 4 163 4 c 0
 284 4 329 116 358 250 c 2
 468 750 l 1
EndSplineSet
EndChar

StartChar: four.alt
Encoding: 65538 -1 342
GlifName: four.alt
Width: 619
VWidth: 1155
Flags: HMW
LayerCount: 2
Fore
SplineSet
544 498 m 1
 433 -1 l 1
 314 -1 l 1
 418 468 l 1
 456 468 518 484 544 498 c 1
516 14 m 1
 516 0 l 1
 227 0 l 1
 227 14 l 1
 516 14 l 1
42 202 m 1
 569 202 l 1
 569 188 l 1
 15 188 l 1
 161 388 440 598 466 750 c 1
 592 750 l 1
 571 597 190 390 42 202 c 1
EndSplineSet
EndChar

StartChar: fj.lig
Encoding: 65539 -1 343
GlifName: fj.lig
Width: 582
VWidth: 1155
Flags: HMW
LayerCount: 2
Fore
SplineSet
351 22 m 2
 433 446 l 1
 59 446 l 1
 59 460 l 1
 543 460 l 1
 463 38 l 2
 440 -88 346 -210 208 -210 c 0
 117 -210 75 -153 75 -106 c 0
 75 -61 107 -35 143 -35 c 0
 174 -35 208 -54 208 -96 c 0
 208 -139 174 -161 140 -161 c 0
 123 -161 111 -152 108 -146 c 1
 117 -167 149 -195 208 -195 c 0
 292 -195 327 -99 351 22 c 2
539 695 m 1
 530 716 505 746 431 746 c 0
 343 746 289 662 267 540 c 2
 167 -12 l 2
 142 -151 51 -260 -79 -260 c 0
 -166 -260 -205 -201 -205 -155 c 0
 -205 -110 -176 -85 -140 -85 c 0
 -109 -85 -74 -103 -74 -147 c 0
 -74 -191 -108 -212 -142 -212 c 0
 -160 -212 -172 -200 -175 -195 c 1
 -166 -214 -142 -246 -84 -246 c 0
 -14 -246 35 -162 56 -40 c 2
 152 512 l 2
 176 652 276 760 426 760 c 0
 533 760 570 701 570 655 c 0
 570 610 541 585 505 585 c 0
 474 585 439 603 439 647 c 0
 439 691 473 712 507 712 c 0
 525 712 535 701 539 695 c 1
EndSplineSet
LCarets2: 1 0
Ligature2: "'liga' Standard Ligatures lookup 0-1" f j
EndChar

StartChar: v.alt
Encoding: 65540 -1 344
Width: 486
VWidth: 1155
Flags: HW
LayerCount: 2
Fore
SplineSet
185 475 m 1
 190 466 l 1
 149 443 135 414 135 377 c 0
 135 300 238 259 238 135 c 0
 238 118 233 70 231 47 c 1
 380 128 467 217 467 344 c 0
 467 366 465 385 460 395 c 1
 457 373 433 335 389 335 c 0
 343 335 322 371 322 402 c 0
 322 438 350 469 393 469 c 0
 462 469 481 405 481 344 c 0
 481 175 339 83 144 -12 c 1
 115 0 l 1
 117 22 127 86 127 106 c 0
 127 183 30 249 30 323 c 0
 30 403 119 449 185 475 c 1
EndSplineSet
EndChar

StartChar: uni2116
Encoding: 8470 8470 345
Width: 1110
Flags: HW
LayerCount: 2
Fore
SplineSet
816 322 m 1
 1062 322 l 1
 1061 308 l 1
 815 308 l 1
 816 322 l 1
1040 760 m 0
 1125 760 1179 714 1179 629 c 0
 1179 476 1068 380 953 380 c 0
 868 380 814 426 814 511 c 0
 814 664 925 760 1040 760 c 0
904 471 m 0
 904 417 922 394 957 394 c 0
 1026 394 1088 547 1088 669 c 0
 1088 723 1071 746 1036 746 c 0
 967 746 904 593 904 471 c 0
EndSplineSet
Refer: 25 78 N 1 0 0 1 26 0 2
EndChar

StartChar: Euro
Encoding: 8364 8364 346
Width: 732
Flags: HW
LayerCount: 2
Fore
SplineSet
744 652 m 1
 737 682 684 746 595 746 c 0
 406 746 285 467 285 229 c 0
 285 115 320 7 421 7 c 0
 517 7 619 90 654 178 c 1
 669 178 l 1
 633 81 526 -10 405 -10 c 0
 280 -10 151 73 151 275 c 0
 151 541 356 760 585 760 c 0
 707 760 773 668 773 610 c 0
 773 563 740 538 706 538 c 0
 677 538 639 558 639 604 c 0
 639 645 675 669 708 669 c 0
 726 669 739 658 744 652 c 1
EndSplineSet
Refer: 88 61 N 1 0 0 1 -30 -70 2
EndChar
